<svg aria-hidden="true" style="position: absolute; width: 0; height: 0; overflow: hidden;" version="1.1" xmlns="http://www.w3.org/2000/svg" xmlns:xlink="http://www.w3.org/1999/xlink">
<defs>
<symbol id="icon-bower" viewBox="0 0 32 32">
<path fill="#ef5734" style="fill: var(--color1, #ef5734)" d="M31.389 15.074c-1.645-1.582-9.876-2.569-12.473-2.856 0.126-0.297 0.233-0.605 0.322-0.921 0.355-0.155 0.736-0.299 1.131-0.42 0.048 0.143 0.275 0.687 0.404 0.945 5.222 0.144 5.491-3.88 5.703-4.984 0.208-1.078 0.198-2.12 1.989-4.025-2.668-0.778-6.506 1.205-7.792 4.157-0.483-0.181-0.968-0.315-1.447-0.397-0.343-1.384-2.13-5.241-6.819-5.241-3.037 0-6.1 1.254-8.402 3.441-1.24 1.178-2.215 2.577-2.897 4.159-0.736 1.708-1.109 3.588-1.109 5.59 0 6.97 4.758 13.077 7.446 13.077 1.174 0 2.184-0.879 2.421-1.667 0.199 0.541 0.808 2.221 1.009 2.647 0.297 0.633 1.665 1.18 2.264 0.523 0.77 0.428 2.184 0.685 2.954-0.456 1.483 0.314 2.796-0.571 2.824-1.627 0.727-0.038 1.085-1.061 0.927-1.875-0.117-0.599-1.369-2.75-1.858-3.492 0.966 0.787 3.416 1.009 3.712 0 1.558 1.223 3.988 0.582 4.18-0.414 1.894 0.492 4.065-0.589 3.709-1.897 3.043-0.21 2.654-3.447 1.8-4.267zM23.465 9.709c-0.801-0.315-1.817-0.514-2.529-0.514-1.010 0-1.626 0.572-2.577 0.572-0.199 0-0.675 0.001-1.058-0.136 0.251 0.264 0.564 0.407 1.17 0.407 0.362 0 1.079-0.185 1.66-0.359 0.008 0.123 0.021 0.243 0.038 0.364-1.088 0.26-2.229 0.952-2.56 1.131-0.735-1.623-0.103-3.157 0.48-3.865 2.616 0.006 4.73 1.803 5.376 2.399zM24.598 9.587l-0.4-0.374c-0.411-0.386-0.839-0.733-1.28-1.043 0.655-1.3 1.479-2.719 2.519-3.598-1.144 0.462-2.276 1.841-2.944 3.314-0.34-0.216-0.687-0.41-1.035-0.578 0.932-1.99 3.098-3.652 5.485-3.781-1.599 1.451-0.999 4.344-2.346 6.059zM21.313 10.943c-0.177-0.383-0.354-1.016-0.333-1.389 0.297-0.007 0.867 0.105 0.958 0.126-0.035 0.175-0.054 0.559-0.054 0.609 0.057-0.097 0.213-0.432 0.277-0.565 0.571 0.109 1.321 0.291 1.76 0.496-0.517 0.335-1.393 0.699-2.608 0.724zM11.883 8.34c-0.646-0.232-0.646-0.815 0-1.046s1.459 0.059 1.459 0.523-0.813 0.755-1.459 0.523zM14.038 8.557c0-1.28-1.395-2.084-2.505-1.444s-1.11 2.249 0 2.889c1.11 0.64 2.505-0.164 2.505-1.444zM17.749 6.457c-2.086 2.115-1.263 4.79-0.503 5.998-1.081 1.798-3.205 3.027-5.673 3.587 2.77 0 4.4-0.713 5.348-1.411 0.605-0.446 0.932-0.886 1.1-1.13 4.108 0.266 10.611 1.589 11.246 2.017 0.254 0.172 0.517 0.552 0.557 0.917-3.087-0.432-8.651-0.887-10.107-0.963 1.034 0.147 8.577 1.575 9.885 1.91-0.398 0.648-1.305 1.107-2.671 0.788 0.739 1.006-0.695 2.212-2.692 1.548 0.439 0.987-1.338 1.876-3.359 0.848 0.025 0.987-2.507 1.102-3.507 0.010 0.020 0.13 0.138 0.379 0.189 0.489-0.322 2.885-2.685 4.674-5.105 4.674-5.924 0-11.086-4.813-11.086-11.215 0-6.768 5.002-11.819 11.038-11.819 3.458 0 5.020 2.722 5.341 3.753z"></path>
</symbol>
<symbol id="icon-deno" viewBox="0 0 32 32">
<path d="M14.741 0.008c-0.075 0.008-0.315 0.036-0.531 0.055-3.077 0.323-6.108 1.625-8.579 3.695-0.67 0.592-1.282 1.203-1.854 1.851l-0.019 0.022c-2.047 2.444-3.243 5.187-3.683 8.433-0.099 0.72-0.099 3.152 0 3.872 0.441 3.247 1.637 5.989 3.683 8.433 0.592 0.67 1.203 1.282 1.851 1.854l0.022 0.019c2.444 2.047 5.187 3.243 8.433 3.683 0.72 0.099 3.152 0.099 3.872 0 3.247-0.441 5.989-1.637 8.433-3.683 0.67-0.592 1.282-1.203 1.854-1.851l0.019-0.022c2.047-2.444 3.243-5.187 3.683-8.433 0.099-0.72 0.099-3.152 0-3.872-0.441-3.247-1.637-5.989-3.683-8.433-0.592-0.67-1.203-1.282-1.851-1.854l-0.022-0.019c-2.436-2.039-5.207-3.251-8.409-3.68-0.347-0.047-0.849-0.067-1.783-0.075-0.176-0.003-0.383-0.005-0.591-0.005-0.298 0-0.594 0.004-0.89 0.011l0.044-0.001zM14.937 1.708c0 0.46 0.032 1.46 0.075 2.408 0.024 0.464 0.051 1.129 0.063 1.476 0.043 1.228 0.173 4.451 0.193 4.737l0.020 0.287-0.177-0.020c-0.074-0.004-0.144-0.019-0.209-0.044l0.005 0.002c-0.031-0.179-0.050-0.389-0.055-0.602l-0-0.004c-0.046-0.502-0.163-3.159-0.269-5.818l-0.058-1.813-0.024-0.873 0.111-0.016c0.059-0.008 0.157-0.020 0.22-0.024l0.107-0.004zM18.704 1.613c0.004 0.004 0.016 1.192 0.028 2.64 0.016 1.452 0.036 2.755 0.047 2.896 0.012 0.145 0.008 0.272-0.012 0.28-0.032 0.006-0.069 0.010-0.106 0.010s-0.074-0.004-0.11-0.010l0.004 0.001-0.181-0.016-0.028-1.145-0.043-1.563c-0.032-0.696-0.059-3.061-0.036-3.12 0.016-0.043 0.059-0.047 0.224-0.020 0.115 0.024 0.208 0.043 0.213 0.048zM9.601 2.932c0.024 0.036 0.208 2.204 0.437 5.041 0.075 0.964 0.149 1.845 0.161 1.956 0.020 0.201 0.016 0.208-0.111 0.287-0.045 0.031-0.097 0.057-0.152 0.077l-0.005 0.002c-0.012 0-0.036-0.103-0.047-0.228-0.055-0.512-0.268-2.983-0.417-4.769-0.087-1.051-0.165-1.991-0.177-2.093-0.020-0.173-0.016-0.189 0.087-0.244 0.125-0.067 0.197-0.079 0.224-0.028zM20.435 3.723c0.111 0.040 0.121 0.059 0.145 0.284 0.040 0.393 0.028 2.275-0.016 2.275-0.115 0-0.351-0.133-0.369-0.208-0.016-0.296-0.026-0.642-0.026-0.991 0-0.088 0.001-0.175 0.002-0.263l-0 0.013c0-1.279-0.016-1.204 0.264-1.111zM13.167 3.908c0 0.107 0.028 0.692 0.059 1.311l0.083 1.74c0.028 0.685 0.036 0.661-0.228 0.677-0.129 0.004-0.129 0.004-0.137-0.193-0.008-0.111-0.028-0.452-0.051-0.768-0.020-0.315-0.067-0.996-0.099-1.515s-0.071-1.035-0.083-1.145c-0.024-0.197-0.020-0.204 0.087-0.244 0.072-0.025 0.156-0.041 0.243-0.043l0.001-0c0.125-0.004 0.125-0.004 0.125 0.18zM24.083 4.447l0.133 0.055 0.028 0.527c0.012 0.287 0.020 0.909 0.012 1.377l-0.012 0.857-0.165-0.083-0.165-0.079-0.012-1.307c-0.008-0.72-0.004-1.331 0.004-1.357 0.016-0.059 0.016-0.059 0.177 0.009zM16.897 4.963c0.024 0.024 0.079 1.932 0.083 2.9l0.004 0.583-0.185-0.028c-0.075-0.006-0.142-0.016-0.209-0.030l0.011 0.002c-0.012-0.008-0.129-2.924-0.129-3.207v-0.291l0.201 0.024c0.083 0.008 0.159 0.024 0.231 0.049l-0.007-0.002zM25.96 5.241c0.047 0.055 0.055 0.917 0.067 5.671 0.012 5.459 0.012 5.6-0.059 5.6-0.052-0.004-0.099-0.022-0.138-0.051l0.001 0c-0.059-0.043-0.067-0.52-0.087-5.183-0.008-2.13-0.025-4.131-0.051-6.13l0.004 0.428-0.024-0.567 0.115 0.083c0.067 0.047 0.141 0.115 0.172 0.149zM22.431 6.049c0.020 0.016 0.040 0.24 0.043 0.496 0.020 0.869 0.024 6.201 0.004 6.217-0.008 0.008-0.079-0.012-0.157-0.043l-0.141-0.059v-6.693l0.111 0.024c0.059 0.016 0.123 0.040 0.141 0.057zM11.569 6.269c0.012 0.107 0.032 0.347 0.043 0.543l0.063 0.976c0.047 0.692 0.040 0.736-0.185 0.736-0.119 0-0.133-0.012-0.149-0.129-0.040-0.232-0.177-2.168-0.157-2.2 0.092-0.053 0.2-0.091 0.314-0.106l0.004-0c0.024-0.004 0.055 0.079 0.068 0.181zM5.060 7.272l0.193 1.94c0.067 0.649 0.123 1.2 0.123 1.224 0 0.047-0.303 0.197-0.335 0.165-0.095-0.602-0.241-1.858-0.369-3.119l-0.044-0.541c0-0.095 0.303-0.492 0.343-0.448 0.012 0.008 0.051 0.359 0.089 0.779zM20.489 7.685l0.115 0.067 0.004 0.851c0.004 0.464 0.012 0.984 0.012 1.153 0.008 0.355-0.036 0.413-0.248 0.339l-0.121-0.043v-0.339c0-0.189-0.012-0.736-0.028-1.22l-0.024-0.873h0.091c0.075 0.009 0.142 0.032 0.203 0.067l-0.003-0.001zM6.788 9.212l0.26 2.833 0.133 1.456-0.153 0.153-0.149 0.153-0.028-0.311c-0.016-0.173-0.095-0.976-0.177-1.787s-0.201-1.987-0.26-2.613l-0.111-1.133 0.153-0.141c0.137-0.129 0.153-0.133 0.181-0.063 0.016 0.040 0.083 0.692 0.151 1.452zM3.84 9.689c0.087 0.775 0.315 2.837 0.512 4.58s0.381 3.424 0.417 3.739c0.032 0.315 0.087 0.791 0.119 1.063 0.055 0.46 0.055 0.492-0.008 0.539-0.095 0.071-0.133 0.063-0.133-0.020 0-0.036-0.036-0.335-0.079-0.657-0.071-0.539-0.189-1.452-0.452-3.503-0.055-0.413-0.161-1.236-0.236-1.829 0.179 1.906 0.006 0.596-0.163-0.715l-0.329-3.114c-0.071-0.535-0.115-1.012-0.103-1.063 0.028-0.107 0.26-0.476 0.284-0.452 0.008 0.012 0.087 0.653 0.171 1.433zM2.636 11.385l0.244 1.92c0.075 0.583 0.169 1.311 0.212 1.613l0.075 0.551-0.083 0.071c-0.047 0.040-0.095 0.055-0.111 0.040s-0.047-0.173-0.071-0.347-0.169-1.184-0.327-2.243l-0.28-1.928 0.091-0.268c0.026-0.1 0.064-0.188 0.113-0.268l-0.002 0.004c0.016 0 0.075 0.385 0.139 0.855zM24.24 10.869c0.055 0.055 0.063 0.299 0.063 2.105v2.043h-0.111c-0.24 0-0.236 0.059-0.252-2.176l-0.012-2.035h0.125c0.067 0 0.153 0.028 0.187 0.063zM15.627 11.573c0.889 0.133 1.664 0.381 2.432 0.775 0.496 0.256 0.732 0.433 1.283 0.96 0.819 0.783 1.323 1.468 1.795 2.436 0.688 1.409 0.956 2.656 1.295 6.001 0.153 1.499 0.355 4.219 0.397 5.332 0.012 0.323 0.040 0.853 0.063 1.18 0.043 0.692 0.095 0.599-0.516 0.893-0.847 0.409-1.66 0.692-2.735 0.956-1.315 0.323-2.164 0.425-3.463 0.429l-0.944 0.004 0.008-0.452c0-0.248 0.024-0.827 0.047-1.279 0.119-2.192 0.095-4.959-0.059-6.493-0.087-0.881-0.256-1.952-0.351-2.188-0.020-0.051 0.071-0.095 0.46-0.228 0.712-0.248 1.331-0.559 1.424-0.712 0.169-0.291-0.133-0.708-0.52-0.708-0.067 0-0.268 0.071-0.452 0.153-0.881 0.405-2.648 0.881-3.668 0.988-0.254 0.022-0.55 0.035-0.849 0.035-0.603 0-1.195-0.051-1.77-0.15l0.062 0.009c-0.413-0.075-1.153-0.355-1.771-0.673-0.712-0.369-1.149-0.861-1.279-1.444-0.071-0.315-0.051-0.944 0.040-1.299 0.099-0.389 0.373-0.956 0.625-1.287 1.121-1.476 3.436-2.755 5.808-3.203 0.432-0.075 0.93-0.118 1.438-0.118 0.423 0 0.839 0.030 1.246 0.087l-0.047-0.005zM27.767 11.696c0.141 0.059 0.157 0.075 0.157 0.208 0.008 1.075-0.016 3.529-0.036 3.632-0.004 0.036-0.208 0.040-0.295 0.008-0.055-0.020-0.063-0.232-0.063-1.968 0-1.244 0.016-1.944 0.040-1.944 0.020 0 0.111 0.028 0.196 0.064zM29.485 13.856l0.141 0.059-0.028 3.259c-0.032 4.152-0.036 4.273-0.185 4.632-0.244 0.587-0.232 0.704-0.208-1.869 0.008-1.287 0.028-2.589 0.036-2.892s0.016-1.157 0.020-1.901c0-0.897 0.012-1.345 0.040-1.345 0.024 0 0.107 0.028 0.184 0.059zM5.82 14.836c0.024 0.319 0.016 0.351-0.099 0.603l-0.125 0.268-0.047-0.393c-0.075-0.629-0.075-0.657 0.075-0.752 0.067-0.047 0.137-0.079 0.149-0.071s0.036 0.165 0.047 0.345zM3.388 17.209c0.036 0.323 0.311 2.464 0.452 3.515 0.212 1.625 0.228 1.857 0.133 1.759-0.061-0.284-0.13-0.698-0.186-1.115l-0.011-0.101c-0.613-4.243-0.609-4.215-0.559-4.247 0.107-0.071 0.141-0.032 0.171 0.189zM6.221 19.011c0.024 0.099 0.137 1.165 0.137 1.295 0 0.111-0.141 0.212-0.204 0.149-0.020-0.020-0.071-0.355-0.111-0.74l-0.099-0.901-0.024-0.197 0.137 0.157c0.065 0.068 0.12 0.146 0.16 0.232l0.002 0.005zM9.397 20.495c0.043 0.040 0.071 0.197 0.107 0.621 0.059 0.768 0.067 0.708-0.095 0.708-0.165 0-0.161 0.012-0.216-0.681-0.055-0.704-0.055-0.696 0.051-0.696 0.051 0 0.119 0.024 0.153 0.048zM12.513 20.553c0.008 0.040 0.028 0.276 0.043 0.524 0.012 0.248 0.047 0.807 0.079 1.24 0.111 1.589 0.115 1.791 0.047 1.791-0.075 0-0.083-0.059-0.169-1.18-0.059-0.871-0.105-1.432-0.156-1.992l0.027 0.367c-0.036-0.429-0.059-0.787-0.047-0.795 0.043-0.047 0.157-0.012 0.177 0.045zM5.116 21.309c0.024 0.036 0.173 1.295 0.359 3.015 0.055 0.52 0.111 1.019 0.121 1.113l0.020 0.169-0.099-0.063c-0.062-0.036-0.103-0.102-0.103-0.177 0-0.006 0-0.011 0.001-0.017l-0 0.001c0-0.248-0.169-1.881-0.299-2.88-0.075-0.567-0.133-1.067-0.133-1.113 0-0.083 0.095-0.115 0.133-0.048zM27.825 22.955l-0.028 1.645-0.099 0.145c-0.224 0.331-0.212 0.393-0.201-1.448l0.008-1.688 0.145-0.149c0.050-0.056 0.107-0.104 0.17-0.143l0.003-0.002c0.012 0 0.012 0.74 0.001 1.64zM24.185 25.563c0.020 2.287 0.016 2.464-0.047 2.535-0.040 0.043-0.075 0.071-0.087 0.059-0.028-0.032-0.067-5.017-0.036-5.045 0.016-0.016 0.055-0.024 0.091-0.020 0.051 0.012 0.063 0.291 0.079 2.472zM11.333 23.997c0.028 0.244 0.125 1.413 0.165 1.964 0.024 0.369 0.024 0.381-0.063 0.409-0.047 0.016-0.103 0.012-0.119-0.008-0.028-0.028-0.115-0.901-0.22-2.247l-0.028-0.323h0.121c0.115 0 0.121 0.008 0.143 0.204zM8.24 25.375c0.028 0.028 0.047 0.125 0.047 0.224 0 0.103 0.047 0.633 0.099 1.184 0.149 1.507 0.161 1.712 0.095 1.672-0.103-0.059-0.193-0.149-0.173-0.173-0.002-0.156-0.016-0.307-0.042-0.454l0.002 0.016c-0.028-0.228-0.063-0.599-0.079-0.827s-0.051-0.645-0.083-0.925c-0.075-0.688-0.071-0.768 0.016-0.768 0.040 0 0.091 0.020 0.119 0.051zM10.101 28.023c0.012 0.087 0.036 0.409 0.051 0.716 0.028 0.591 0.016 0.633-0.145 0.512-0.047-0.036-0.079-0.185-0.125-0.633-0.083-0.811-0.087-0.779 0.067-0.764 0.115 0.012 0.129 0.028 0.153 0.169zM8.696 13.459c-0.409 0.177-0.441 0.732-0.055 0.929 0.28 0.141 0.563 0.075 0.708-0.169 0.052-0.080 0.083-0.178 0.083-0.283 0-0.289-0.234-0.523-0.523-0.523-0.078 0-0.151 0.017-0.217 0.047l0.003-0.001zM11.364 13.836c-0.171 0.109-0.283 0.297-0.283 0.511s0.112 0.403 0.28 0.51l0.002 0.001c0.373 0.224 0.857-0.071 0.857-0.52 0-0.433-0.496-0.724-0.857-0.503z"></path>
</symbol>
<symbol id="icon-fossa" viewBox="0 0 32 32">
<path fill="#90a1b8" style="fill: var(--color2, #90a1b8)" d="M4.992 17.088c0 0-0.044-0.123 0.079-0.219 0.157-0.113 0.359-0.227 0.472-0.096l0.019 0.019c0.088 0.096 0.192 0.131 0.297 0.131 0.227 0 0.463-0.157 0.568-0.227 0.253-0.175 0.428-0.323 0.463-0.777v-0.017c0-0.009 0-0.14 0.113-0.165 0.044-0.009 0.088 0.017 0.123 0.044 0.088 0.079 0.192 0.271 0.175 0.551-0.035 0.411-0.236 0.777-0.595 1.092-0.027 0.027-0.052 0.044-0.079 0.069-0.219 0.175-0.428 0.332-0.62 0.463-0.271 0.148-0.516-0.079-0.637-0.227-0.052-0.069-0.096-0.131-0.165-0.236l-0.017-0.035c-0.072-0.125-0.141-0.248-0.195-0.369v0 0zM4.119 19.735c0.027 0.017 0.052 0.035 0.079 0.052 0.035 0.027 0.069 0.044 0.113 0.061 0.096 0.044 0.192 0.027 0.359-0.017 0.044-0.009 0.088-0.017 0.131-0.027-0.209-0.192-0.367-0.419-0.48-0.673-0.009 0.203-0.061 0.412-0.201 0.604v0zM6.6 4.263c0-0.008-0.009-0.008 0 0-0.105-0.131-0.192-0.261-0.263-0.392 0.027 0.236 0.069 0.472 0.113 0.681 0.017 0.079 0.027 0.148 0.044 0.219 0.079-0.088 0.157-0.165 0.227-0.244-0.043-0.176-0.121-0.264-0.121-0.264v0zM2.817 17.769c0.009-0.017 0.009-0.044 0.009-0.079v-0.027c-0.009-0.096 0-0.192 0.009-0.305 0.009-0.14 0.035-0.271 0.069-0.411v0c0-0.009 0-0.017 0.009-0.027 0.009-0.027 0.017-0.088 0.009-0.105v0c-0.105-0.079-0.227-0.148-0.315-0.192 0.017 0.201 0.009 0.419 0 0.541v0.061c-0.009 0.131-0.017 0.28 0.184 0.497-0.003 0.019 0.015 0.028 0.024 0.045v0zM22.255 8.709c0.105 0 0.209-0.009 0.315-0.027 0.165-0.052 0.28-0.079 0.297-0.088 0.917-0.271 1.677-0.856 2.027-1.564 0.244-0.637 0.219-1.127 0.192-1.476-0.009-0.079-0.009-0.157-0.009-0.236-0.009-0.612 0.751-1.677 0.908-1.896 0.551-0.908 0.733-1.687 0.551-2.245-0.165-0.497-0.576-0.664-0.585-0.673v0h-0.009c-0.157-0.069-0.315-0.131-0.48-0.175-0.261-0.067-0.54-0.103-0.829-0.103-1.144 0-2.393 0.585-3.328 1.572 0 0.009-0.009 0.017-0.017 0.027-0.341 0.445-0.883 1.355-0.647 2.428 0.165 0.733 0.568 1.311 1.232 1.773 0.088 0.061 0.131 0.157 0.113 0.263s-0.079 0.184-0.175 0.219c-0.009 0-0.839 0.315-1.013 0.848-0.069 0.209-0.027 0.437 0.14 0.691 0.027 0.008 0.507 0.663 1.319 0.663v0 0zM4.040 15.044c0.123 0 0.288-0.069 0.559-0.236 0.376-0.227 0.751-0.376 1.127-0.437h0.017c0.123-0.027 0.209-0.131 0.209-0.263v-0.027c-0.009-0.096-0.069-0.184-0.165-0.219-0.009 0-0.017-0.009-0.027-0.009-0.096-0.035-0.201-0.052-0.315-0.052h-0.007c-0.148 0-0.236 0.027-0.332 0.061-0.079 0.027-0.148 0.044-0.236 0.044h-0.053c-0.079-0.009-0.157-0.035-0.209-0.061-0.061-0.027-0.113-0.044-0.175-0.044-0.027 0-0.044 0-0.069 0.009-0.165 0.035-0.341 0.184-0.401 0.244 0 0-0.009 0.009-0.017 0.009h-0.009c-0.105 0.088-0.219 0.184-0.332 0.271l-0.052 0.052c0 0-0.009 0.009-0.009 0.017l-0.017 0.027c-0.017 0.035-0.027 0.079-0.027 0.113 0 0.069 0.027 0.14 0.079 0.192 0.009 0.009 0.017 0.017 0.027 0.027v0c0.009 0.009 0.017 0.017 0.027 0.027 0.192 0.176 0.279 0.255 0.409 0.255v0 0zM16.9 30.899c0.009 0 0.017-0.009 0.027-0.009 1.311-0.524 2.595-1.188 3.817-1.983l0.052-0.035c0.069-0.052 0.123-0.131 0.123-0.219v0-0.027c0-0.017 0-0.027-0.009-0.044 0-0.009-0.009-0.017-0.009-0.027l-0.009-0.017c-0.28-0.777-0.673-2.472-0.175-5.032 0.131-0.655 0.201-1.284 0.209-1.869v-0.063c-0.016-0.136-0.129-0.241-0.26-0.241-0.088 0-0.165 0.044-0.209 0.105l-0.009 0.017v0.009l-0.017 0.017c-0.14 0.263-0.315 0.533-0.516 0.821-2.088 2.996-3.66 5.512-3.364 8.377 0.017 0.14 0.131 0.236 0.263 0.236 0.027 0 0.061-0.009 0.088-0.019v0zM13.004 31.983l0.044-0.009c0.489-0.069 1.485-0.253 2.76-0.673v0l0.017-0.009h0.009c0.009 0 0.017-0.009 0.027-0.009v0c0.096-0.044 0.157-0.14 0.157-0.244v0-0.017l-0.009-0.035c-0.428-3.145 1.232-5.819 3.433-8.98 1.407-2.019 1.031-2.996 0.62-3.556-0.401-0.48-0.917-0.716-1.547-0.716-0.288 0-0.603 0.052-0.935 0.157-0.288 0.096-0.585 0.184-0.891 0.263-0.305 0.069-0.629 0.131-0.961 0.184-0.219 0.035-0.437 0.061-0.647 0.088-1.083 0.14-2.115 0.271-3.32 0.9l-0.017 0.017h-0.017c-0.096 0.044-0.184 0.096-0.28 0.14v0h-0.008c-0.009 0.009-0.027 0.009-0.035 0.017h-0.009c-0.027 0.017-0.044 0.035-0.061 0.061 0 0-0.009 0.009-0.009 0.017v0.009l-0.017 0.017c-0.017 0.035-0.027 0.079-0.027 0.113 0 0.079 0.035 0.157 0.096 0.209h0.063v0.044c0.812 0.507 1.397 1.756 1.485 3.18 0.113 1.825-0.052 3.512-0.201 4.988v0.017c-0.157 1.537-0.28 2.743-0.044 3.608v0.019c0 0.017 0.009 0.044 0.017 0.061 0.044 0.093 0.14 0.155 0.245 0.155 0.044-0.017 0.052-0.017 0.061-0.017v0zM5.631 5.635c0.009-0.009 0.009-0.009 0.017-0.017v0-0.009c0.123-0.148 0.236-0.288 0.349-0.411 0.009-0.009 0.009-0.009 0.017-0.017 0.035-0.044 0.061-0.105 0.061-0.165v-0.053c-0.017-0.104-0.035-0.217-0.061-0.313-0.113-0.568-0.244-1.267 0-1.843 0-0.305 0.052-0.62 0.088-0.9v-0.019c0.027-0.165 0.052-0.332 0.069-0.497 0.052-0.524-0.044-0.961-0.263-1.197-0.121-0.131-0.271-0.192-0.453-0.192h-0.027c-0.087 0-0.209 0-0.34 0.123-0.088 0.104-0.157 0.305-0.211 0.559-0.069 0.367-0.069 0.777-0.052 1.013 0.088 0.883 0.069 0.996 0 1.188-0.035 0.088-0.079 0.209-0.096 0.708-0.017 0.376 0.14 0.9 0.297 1.397v0.009c0.052 0.165 0.104 0.34 0.148 0.515v0c0 0.009 0.009 0.027 0.009 0.035v0.009c0.044 0.105 0.14 0.175 0.253 0.175 0.069-0.008 0.139-0.044 0.192-0.096v0zM5.953 8.753c0-0.009 0.009-0.027 0.009-0.035v0-0.009c0.044-0.315 0.079-0.733 0.104-1.363 0.009-0.184 0.035-0.384 0.069-0.585v0l0.027-0.113c0-0.017 0.009-0.035 0.009-0.052v-0.027c-0.017-0.14-0.131-0.244-0.263-0.244-0.079 0-0.157 0.035-0.201 0.096 0 0-0.009 0.009-0.009 0.017v0.009c-0.095 0.121-0.156 0.2-0.173 0.217l-0.008 0.009c-0.088 0.096-0.167 0.219-0.236 0.357-0.165 0.323-0.244 0.647-0.253 0.673v0.009c-0.036 0.139-0.071 0.288-0.105 0.445 0 0.096 0.027 0.184 0.079 0.271 0.096 0.175 0.28 0.332 0.559 0.489l0.009 0.009c0.009 0.009 0.017 0.009 0.027 0.017 0.035 0.017 0.069 0.027 0.113 0.027 0.104-0.019 0.219-0.097 0.244-0.22v0zM7.237 3.896v0l0.017-0.017c0.245-0.209 0.516-0.393 0.821-0.559h0.009c0.088-0.044 0.131-0.14 0.131-0.236v-0.027c-0.009-0.052-0.027-0.105-0.061-0.148-0.288-0.341-0.515-0.804-0.707-1.215l-0.019-0.035c-0.060-0.123-0.121-0.245-0.175-0.359v0 0l-0.027-0.052c-0.043-0.088-0.139-0.148-0.235-0.148-0.088 0-0.165 0.044-0.209 0.105 0 0-0.009 0.009-0.009 0.017v0.009l-0.017 0.016c-0.017 0.035-0.027 0.061-0.027 0.096l-0.008 0.088c-0.017 0.183-0.044 0.357-0.071 0.524-0.043 0.305-0.087 0.593-0.087 0.873 0.008 0.376 0.096 0.681 0.288 0.969v0.009c0 0.009 0.009 0.009 0.017 0.017 0.052 0.069 0.131 0.105 0.219 0.105 0.044 0.025 0.105-0.001 0.148-0.036v0zM7.316 13.987v0c0.332-0.9 0.969-1.791 1.485-2.516 0.209-0.297 0.42-0.577 0.559-0.813 1.119-1.817 1.729-3.52 1.739-3.539 0-0.009 0.009-0.017 0.009-0.027 0.516-1.153 1.153-1.957 1.948-2.464 0.699-0.445 1.511-0.681 2.629-0.76h0.017c0.401-0.027 0.725-0.131 0.961-0.323v-0.007h0.009l0.017-0.017h0.009c0.017-0.017 0.044-0.035 0.052-0.052 0.035-0.044 0.061-0.105 0.061-0.165v-0.028c-0.009-0.123-0.113-0.227-0.236-0.236l-0.079-0.009c-0.323-0.035-0.673-0.052-1.048-0.052-0.769 0-1.633 0.079-2.489 0.227-0.272 0.044-0.56 0.071-0.892 0.071-0.263 0-0.516-0.017-0.769-0.027-0.244-0.009-0.497-0.027-0.743-0.027-0.105 0-0.192 0-0.28 0.009-0.261 0.009-0.524 0.053-0.795 0.123v0l-0.069 0.017h-0.009c-0.996 0.288-1.86 1.171-2.384 2.403 0 0 0 0.009-0.009 0.009-0.227 0.533-0.359 1.092-0.384 1.572-0.061 1.223-0.131 1.756-0.323 2.253v0.017l-0.019 0.017c-0.087 0.219-0.192 0.428-0.323 0.7l-0.027 0.061c-0.184 0.357-0.428 0.777-0.672 1.188l-0.071 0.113c-0.035 0.052-0.061 0.104-0.096 0.157-0.209 0.357-0.419 0.724-0.551 1.004v0.017l-0.017 0.017c0 0.009-0.009 0.017-0.009 0.017v0c-0.008 0.027-0.016 0.061-0.016 0.088 0 0.113 0.069 0.209 0.165 0.244 0.009 0 0.017 0.009 0.027 0.009l0.017 0.009c0.035 0.017 0.069 0.027 0.105 0.044 0.017 0.009 0.044 0.017 0.052 0.017 0.017 0 0.044-0.009 0.061-0.017h0.009c0.105-0.035 0.263-0.079 0.507-0.079h0.009c0.288 0 0.551 0.079 0.777 0.219 0.175 0.113 0.411 0.332 0.637 0.595 0.052 0.061 0.123 0.096 0.209 0.096 0.095 0.016 0.192-0.055 0.235-0.159v0zM8.076 16.791v0c0.017 0 0.027-0.009 0.035-0.009h0.009c0.576-0.14 1.048-0.305 1.345-1.004 0.323-0.751 0.541-1.66 0.751-2.543l0.069-0.28c0.349-1.441 0.699-2.7 1.451-3.564l0.009-0.009c0.027-0.035 0.061-0.069 0.088-0.096v0c0.009-0.009 0.009-0.009 0.017-0.017 0.009-0.009 0.009-0.009 0.017-0.017 0.34-0.323 0.839-0.497 1.407-0.497 0.28 0 0.568 0.044 0.865 0.123v0h0.009c0.052 0.017 0.105 0.027 0.157 0.044 0.271 0.079 0.585 0.175 0.917 0.175v0c0.297 0 0.568-0.069 0.839-0.227v0h0.009c0.017-0.009 2.044-1.119 3.128-4.473v-0.009c0.009-0.017 0.009-0.044 0.017-0.061v0l0.017-0.044v-0.008l0.009-0.017c0.009-0.027 0.017-0.044 0.027-0.069l0.017-0.044c0.009-0.027 0.009-0.044 0.009-0.069v-0.027c-0.017-0.14-0.131-0.236-0.263-0.236-0.052 0-0.096 0.017-0.14 0.044l-0.017 0.009c-0.725 0.48-1.459 0.524-2.272 0.533-0.305 0-0.576 0.009-0.829 0.027h-0.017c-1.739 0.123-3.111 0.655-4.115 2.892-0.047 0.111-0.667 1.815-1.785 3.632-0.148 0.244-0.359 0.533-0.568 0.829l-0.044 0.017c-0.787 1.092-1.852 2.595-1.564 3.739v0.017c0.079 0.28 0.105 0.551 0.088 0.804v0 0.019c0 0.044-0.009 0.079-0.017 0.123v0 0.036c0 0.148 0.123 0.271 0.271 0.271 0.017-0.011 0.035-0.011 0.052-0.011v0zM20.088 9.784v0l0.017-0.009h0.019c0.244-0.157 0.516-0.305 0.821-0.455v0c0.009 0 0.017-0.009 0.035-0.017 0.088-0.044 0.131-0.14 0.131-0.236v-0.025c-0.009-0.069-0.044-0.14-0.105-0.184v0c-0.305-0.219-0.48-0.455-0.516-0.507-0.263-0.401-0.332-0.795-0.209-1.171 0.096-0.288 0.305-0.559 0.629-0.795h0.009c0.009 0 0.009-0.009 0.017-0.009v0c0.061-0.052 0.096-0.123 0.096-0.201v-0.024c-0.009-0.069-0.035-0.123-0.088-0.175l-0.069-0.061 0.009-0.009c-0.305-0.332-0.524-0.691-0.664-1.083v0l-0.027-0.105c-0.035-0.113-0.14-0.192-0.253-0.192-0.088 0-0.165 0.044-0.209 0.105-0.009 0.009-0.017 0.027-0.027 0.044-0.009 0.009-0.009 0.027-0.017 0.035 0 0.009 0 0.009-0.009 0.017v0.019c-0.227 0.891-0.14 1.879-0.061 2.927v0.009c0.052 0.612 0.105 1.249 0.088 1.869v0.036c0 0.148 0.123 0.263 0.271 0.263 0.027-0.031 0.079-0.048 0.113-0.065v0zM6.767 21.552c0.969 0 1.468-0.411 2.219-1.023l0.035-0.027c0.105-0.088 0.209-0.175 0.323-0.263h0.009c0.044-0.035 0.079-0.061 0.123-0.096l0.009-0.009h0.009c0.455-0.359 1.109-0.829 2.061-1.301 0.585-0.305 1.161-0.524 1.817-0.681 0.568-0.14 1.101-0.209 1.677-0.28l0.035-0.009c0.201-0.027 0.411-0.052 0.62-0.088 0.62-0.088 1.215-0.227 1.756-0.419 2.184-0.76 3.573-2.297 3.905-4.333 0.26-1.613 0.68-2.356 1.317-3.107 0.052-0.061 0.113-0.131 0.192-0.219 0.044-0.052 0.069-0.113 0.069-0.184v-0.027c-0.017-0.14-0.131-0.244-0.263-0.244-0.035 0-0.061 0.009-0.096 0.017l-0.123 0.044v-0.009c-0.865 0.288-2.629 0.987-3.040 1.965-0.009 0.035-0.027 0.061-0.035 0.096-0.184 0.463-0.437 0.873-0.777 1.24-1.083 1.171-2.149 1.451-3.188 1.721-0.996 0.263-1.931 0.507-2.857 1.572l-0.009 0.009c-0.009 0.009-0.568 0.595-1.529 2.272-0.541 0.952-1.459 1.695-2.595 2.088-0.533 0.192-1.101 0.288-1.643 0.288-0.48 0-0.944-0.079-1.319-0.236v0h-0.024l-0.017-0.017c-0.105-0.044-0.209-0.069-0.315-0.069-0.113 0-0.219 0.027-0.315 0.044-0.096 0.027-0.209 0.052-0.323 0.052h-0.088c-0.079 0.009-0.148 0.044-0.192 0.105 0 0-0.009 0.009-0.009 0.017v0.009l-0.017 0.017c-0.017 0.035-0.027 0.079-0.027 0.113 0 0.079 0.035 0.157 0.096 0.209l0.011 0.008c0.061 0.052 0.131 0.096 0.201 0.14 0.611 0.393 1.388 0.585 2.288 0.595h0.027v0.017zM18.079 3.355c-0.148-0.069-0.315-0.14-0.497-0.192-0.027-0.009-0.052-0.017-0.088-0.027-0.017 0.061-0.079 0.192-0.079 0.192-0.017 0.044-0.035 0.096-0.035 0.148 0 0.201 0.157 0.359 0.359 0.359 0.027 0 0.044 0 0.069-0.009 0.017 0 0.027-0.009 0.044-0.009 0.201-0.052 0.393-0.131 0.585-0.236-0.105-0.077-0.219-0.156-0.359-0.225v0zM21.713 28.244v0c0.009-0.009 0.017-0.017 0.027-0.017l0.017-0.009c0.445-0.323 0.891-0.673 1.311-1.031 1.765-1.493 3.285-3.224 4.525-5.145v-0.009c0.009-0.009 0.017-0.027 0.027-0.035 0.017-0.035 0.035-0.079 0.035-0.123v-0.025c-0.009-0.088-0.061-0.165-0.14-0.209h-0.009c-0.263-0.131-0.516-0.305-0.743-0.533-0.935-0.917-1.52-2.525-1.729-4.769l-0.017-0.148c-0.069-0.787-0.219-2.42-0.996-3.643v0c-0.341-0.497-0.673-1.023-0.969-1.564l-0.009-0.017c-0.052-0.079-0.131-0.123-0.227-0.123-0.088 0-0.165 0.044-0.209 0.105v0c0 0.009-0.009 0.009-0.009 0.017l-0.017 0.027c-0.315 0.551-0.524 1.205-0.681 2.123-0.253 1.555-1.075 2.865-2.359 3.792-0.009 0-0.009 0.009-0.017 0.009l-0.009 0.009c-0.017 0.017-0.035 0.027-0.052 0.052 0 0-0.009 0.009-0.009 0.017v0.009l-0.017 0.017c-0.017 0.035-0.027 0.079-0.027 0.113 0 0.105 0.061 0.201 0.165 0.244l0.052 0.027c0.341 0.157 0.647 0.384 0.9 0.691 0.944 1.119 1.215 3.136 0.743 5.529-0.341 1.729-0.236 3.032-0.088 3.817 0.044 0.227 0.096 0.445 0.157 0.647 0 0.009 0 0.009 0.009 0.017 0.035 0.113 0.14 0.184 0.253 0.184 0.027-0.012 0.071-0.021 0.115-0.047v0zM28.169 21.089l0.019-0.035c0.812-1.424 1.267-2.595 1.468-3.171 0-0.009 0.009-0.017 0.009-0.017 0.009-0.027 0.009-0.052 0.009-0.079v-0.028c-0.009-0.088-0.061-0.165-0.14-0.209-1.284-0.612-2.507-1.52-3.635-2.681 0 0-0.027-0.027-0.035-0.035-0.044-0.044-0.113-0.061-0.175-0.061-0.088 0-0.165 0.044-0.209 0.105 0 0-0.009 0.009-0.009 0.017v0.009l-0.017 0.017c-0.017 0.035-0.027 0.079-0.027 0.113v0.036l0.009 0.027c0.061 0.411 0.096 0.777 0.123 1.040l0.017 0.148c0.131 1.441 0.507 3.372 1.537 4.403 0.209 0.209 0.437 0.376 0.664 0.48l0.079 0.035c0.035 0.017 0.069 0.017 0.105 0.017 0.076-0.019 0.155-0.063 0.207-0.132v0zM3.953 19.019v0-0.036c-0.017-0.14-0.113-0.263-0.253-0.305-0.009 0-0.017 0-0.027-0.009-0.096-0.027-0.201-0.061-0.315-0.113h-0.008c-0.131-0.061-0.271-0.14-0.411-0.227-0.061-0.035-0.131-0.088-0.209-0.148l-0.009-0.009c-0.044-0.027-0.096-0.052-0.148-0.052-0.079 0-0.157 0.044-0.201 0.105v0c-0.009 0.009-0.009 0.017-0.017 0.027v0c-0.017 0.035-0.027 0.079-0.027 0.123 0 0.027 0 0.044 0.009 0.061 0 0.009 0 0.009 0.009 0.017 0.009 0.027 0.017 0.061 0.027 0.088 0.131 0.367 0.341 0.681 0.595 0.891v0c0.201 0.165 0.411 0.253 0.585 0.244 0.017 0 0.035-0.009 0.052-0.009 0.079-0.017 0.148-0.052 0.201-0.123 0.129-0.157 0.155-0.349 0.147-0.524v0zM6.784 15.183v-0.017c-0.009-0.105-0.079-0.192-0.184-0.227h-0.009c-0.131-0.035-0.28-0.052-0.445-0.052-0.052 0-0.113 0-0.165 0.009-0.349 0.027-0.716 0.157-1.092 0.384-0.349 0.219-0.629 0.315-0.865 0.315-0.315 0-0.524-0.184-0.769-0.419-0.105-0.105-0.219-0.157-0.349-0.157-0.088 0-0.175 0.027-0.271 0.069-0.017 0.009-0.069 0.052-0.113 0.088-0.017 0.017-0.027 0.035-0.044 0.052v0l-0.009 0.009c0 0-0.009 0.009-0.009 0.017v0.009l-0.017 0.017c-0.017 0.035-0.027 0.079-0.027 0.113 0 0.14 0.105 0.253 0.236 0.263h0.017c0.131 0.009 0.263 0.069 0.393 0.165 0.524 0.393 0.419 0.725 0.332 1.057-0.017 0.052-0.027 0.105-0.044 0.165l-0.009 0.027c-0.027 0.113-0.044 0.219-0.052 0.323-0.007 0.095-0.007 0.183-0.007 0.261 0.017 0.315 0.157 0.411 0.28 0.48 0.017 0.009 0.035 0.017 0.052 0.027s0.044 0.017 0.069 0.017c0.069 0 0.131-0.044 0.157-0.105 0-0.009 0.009-0.017 0.009-0.027s0.009-0.017 0.017-0.027v-0.008c0-0.009 0.009-0.009 0.009-0.017l0.017-0.017c0.009-0.009 0.017-0.017 0.027-0.017 0.009-0.009 0.017-0.009 0.027-0.017 0.009 0 0.009-0.009 0.017-0.009 0.009 0 0.009-0.009 0.017-0.009h0.009c0.009 0 0.009-0.009 0.017-0.009v0h0.14c0.009 0 0.017 0 0.027 0.009h0.009l0.017 0.009c0.009 0 0.017 0.009 0.035 0.017 0.009 0 0.009 0.009 0.017 0.009 0.009 0.009 0.017 0.009 0.027 0.017l0.035 0.035c0.009 0.009 0.017 0.017 0.017 0.027v0c0 0.009 0.009 0.009 0.009 0.017v0.009c0 0.009 0.009 0.009 0.009 0.017l0.009 0.009c0 0.009 0.009 0.009 0.009 0.017 0.027 0.079 0.069 0.131 0.14 0.175 0.079 0.044 0.175 0.069 0.297 0.069 0.069 0 0.148-0.009 0.227-0.027 0.088-0.027 0.131-0.069 0.131-0.096 0.009-0.035-0.017-0.096-0.061-0.148l-0.009-0.009c-0.017-0.017-0.027-0.035-0.044-0.061-0.052-0.079-0.105-0.14-0.175-0.244l-0.027-0.044c-0.096-0.14-0.175-0.28-0.236-0.428l-0.027-0.061c-0.175-0.437-0.165-0.856 0.027-1.153 0.148-0.227 0.384-0.349 0.673-0.359h0.009c0.349 0 0.48 0.297 0.541 0.497v0c0.027 0.096 0.113 0.157 0.219 0.157 0.044 0 0.079-0.009 0.105-0.027 0.009-0.009 0.017-0.009 0.027-0.017s0.017-0.009 0.027-0.017c0.192-0.131 0.244-0.165 0.263-0.428 0-0.148 0.061-0.349 0.219-0.48 0.009-0.009 0.017-0.009 0.027-0.017 0.061-0.052 0.096-0.123 0.096-0.201-0.032 0.001-0.032 0.001-0.032-0.008v0zM19.057 7.696c-0.009-0.157-0.027-0.315-0.035-0.472v-0.017c-0.017-0.14-0.131-0.244-0.263-0.244-0.088 0-0.165 0.044-0.209 0.105 0 0-0.009 0.009-0.009 0.017v0.008l-0.017 0.017c-0.865 1.336-1.773 1.965-2.079 2.157-0.079 0.359-0.384 1.372-1.511 2.115-0.027 0.017-0.052 0.035-0.079 0.052-0.017 0.009-0.035 0.017-0.052 0.035-1.161 0.708-2.385 0.568-2.385 0.568v0c-1.153-0.165-1.476 0.576-1.599 1.040l-0.069 0.28c-0.219 0.908-0.437 1.843-0.787 2.639-0.437 1.013-1.205 1.197-1.879 1.355-0.393 0.096-0.76 0.184-1.057 0.419-0.027 0.027-0.052 0.052-0.088 0.069-0.219 0.175-0.428 0.332-0.629 0.463l-0.061 0.044c-0.393 0.253-0.76 0.419-1.083 0.489l-0.044 0.009c-0.009 0-0.017 0-0.027 0.009h-0.016c-0.123 0.027-0.201 0.14-0.201 0.263 0 0.052 0.017 0.105 0.044 0.148v0c0.009 0.009 0.017 0.017 0.027 0.035 0 0 0 0.009 0.009 0.009 0.165 0.209 0.393 0.376 0.681 0.497l0.017 0.009c0.323 0.131 0.708 0.201 1.119 0.201 1.232 0 2.935-0.655 3.765-2.105 0.969-1.687 1.547-2.315 1.608-2.376 1.031-1.188 2.096-1.468 3.128-1.739 1.004-0.263 1.948-0.507 2.927-1.564 0.297-0.315 0.516-0.664 0.664-1.065 0.009-0.035 0.027-0.069 0.035-0.096 0.347-1.024 0.251-2.221 0.155-3.375v0zM4.625 11.732c0-0.009 0-0.027-0.009-0.035v-0.008c-0.060-0.123-0.131-0.289-0.183-0.499v-0.017c-0.027-0.069-0.096-0.131-0.175-0.131-0.061 0-0.113 0.027-0.148 0.069v0c0 0.009-0.009 0.017-0.009 0.017v0c0 0 0 0.009-0.009 0.009-0.008 0.008-0.008 0.025-0.008 0.035-0.087 0.263-0.175 0.497-0.271 0.708-0.061 0.131-0.123 0.244-0.184 0.357v0 0c0 0 0 0.009-0.009 0.009v0c0 0 0 0 0 0.009v0c0 0.009-0.009 0.017-0.009 0.035s0 0.027 0.009 0.044c0 0 0 0.009 0.009 0.009 0.017 0.017 0.027 0.035 0.044 0.061v0c0.061 0.103 0.167 0.208 0.288 0.208 0.131 0 0.263-0.113 0.323-0.227 0-0.009 0.009-0.009 0.009-0.017 0.096-0.184 0.211-0.385 0.324-0.577 0-0.009 0.009-0.017 0.009-0.017v0c0.009-0.017 0.009-0.027 0.009-0.044-0.011 0.009-0.011 0.009-0.011 0v0 0zM3.499 12.868c0-0.009-0.009-0.009-0.009-0.017 0 0 0-0.009-0.009-0.009-0.027-0.035-0.069-0.061-0.113-0.061s-0.088 0.017-0.113 0.052v0c0 0 0 0.009-0.009 0.009 0 0 0 0 0 0.009v0c0 0 0 0.009-0.009 0.009v0c-0.219 0.437-0.263 0.804-0.28 1.092v0.017c0 0.079 0.061 0.14 0.14 0.14 0.027 0 0.052-0.009 0.079-0.027l0.009-0.009c0.035-0.027 0.069-0.052 0.096-0.079l0.009-0.009c0.044-0.035 0.14-0.113 0.244-0.227 0 0 0 0 0.009-0.009v0l0.009-0.009c0.228-0.208 0.132-0.531-0.052-0.872v0z"></path>
</symbol>
<symbol id="icon-fossilscm" viewBox="0 0 32 32">
<path fill="#548294" style="fill: var(--color3, #548294)" d="M16.761 0c-0.932 0.029-2.721 0.74-4.611 1.892-2.199 1.335-3.807 2.825-3.937 3.585-0.011 0.012-0.025 0.019-0.035 0.031-0.751 0.995 0.271 3.036 2.281 4.552 1.877 1.417 3.944 1.863 4.823 1.109 0.691-0.12 1.636-2.368 2.169-5.253 0.511-2.739 0.467-5.083-0.060-5.619-0.008-0.027 0.001-0.064-0.013-0.088-0.092-0.151-0.307-0.217-0.617-0.209zM13.725 3.915c-0.219 0.257-0.439 0.511-0.656 0.807-0.289 0.395-0.537 0.783-0.757 1.155-0.343-0.206-0.742-0.4-1.158-0.559l-0.052-0.017c0.933-0.399 1.714-0.807 2.462-1.265l-0.082 0.047c0.089-0.053 0.157-0.112 0.244-0.167zM14.941 5.36c-0.005 0.032-0.013 0.057-0.020 0.088-0.13 0.662-0.237 1.475-0.298 2.301l-0.004 0.072c-0.273-0.327-0.558-0.62-0.864-0.891l-0.008-0.007c0.287-0.321 0.581-0.676 0.869-1.068 0.124-0.169 0.213-0.328 0.325-0.495zM10.755 10.696c-0.547-0.1-1.291 1.52-1.661 3.608-0.368 2.088-0.219 3.863 0.328 3.959s1.296-1.521 1.664-3.609 0.219-3.861-0.331-3.957zM3.341 14.307c-0.096 0.043-0.035 0.419 0.137 0.833 0.176 0.416 0.396 0.719 0.493 0.68 0.099-0.041 0.033-0.415-0.139-0.831-0.173-0.416-0.393-0.72-0.492-0.683zM2.539 14.981c-0.047-0.007-0.081 0-0.101 0.024-0.083 0.089 0.111 0.397 0.429 0.683 0.32 0.287 0.644 0.443 0.727 0.353 0.080-0.093-0.112-0.397-0.432-0.684-0.24-0.213-0.481-0.356-0.623-0.376zM2.24 15.893c-0.157 0-0.263 0.027-0.273 0.077-0.023 0.103 0.329 0.273 0.783 0.376 0.457 0.104 0.848 0.104 0.871 0.003 0.023-0.107-0.331-0.272-0.784-0.379-0.177-0.044-0.382-0.072-0.592-0.077l-0.004-0zM3.968 16.085c-0.335 0.089-0.313 1.272 0.048 2.64 0.36 1.373 0.927 2.413 1.26 2.327 0.333-0.089 0.312-1.272-0.049-2.64-0.361-1.373-0.925-2.416-1.259-2.327zM17.827 16.333c-0.096-0.041-0.316 0.264-0.492 0.68-0.173 0.415-0.237 0.787-0.137 0.827 0.096 0.043 0.32-0.263 0.492-0.68 0.173-0.413 0.237-0.788 0.137-0.827zM18.64 17.005c-0.14 0.020-0.38 0.16-0.617 0.375-0.317 0.284-0.509 0.593-0.431 0.683 0.077 0.085 0.405-0.076 0.721-0.36 0.317-0.284 0.507-0.591 0.427-0.677-0.019-0.021-0.053-0.027-0.1-0.020zM8.473 17.796c-0.453 0.047-1.147 0.492-1.768 1.177-0.828 0.915-1.219 1.916-0.869 2.229 0.348 0.316 1.304-0.167 2.135-1.080 0.828-0.919 1.216-1.916 0.867-2.232-0.087-0.079-0.213-0.109-0.364-0.095zM18.94 17.919c-0.159 0-0.368 0.024-0.595 0.076-0.457 0.103-0.809 0.269-0.787 0.375 0.023 0.103 0.413 0.103 0.869 0 0.453-0.103 0.809-0.269 0.784-0.373-0.011-0.049-0.116-0.076-0.272-0.077zM10.767 18.143c-0.004-0-0.010-0.001-0.015-0.001-0.044 0-0.085 0.014-0.118 0.038l0.001-0c-0.28 0.217 0.191 1.304 1.057 2.427 0.863 1.121 1.795 1.857 2.076 1.64 0.28-0.213-0.197-1.303-1.060-2.424-0.756-0.983-1.563-1.668-1.941-1.68zM16.843 18.2c-0.356-0.040-1.124 0.48-1.849 1.28-0.827 0.913-1.288 1.848-1.023 2.084 0.261 0.24 1.148-0.309 1.976-1.223 0.828-0.915 1.285-1.847 1.024-2.087-0.034-0.030-0.079-0.050-0.127-0.055l-0.001-0zM9.372 18.377c-0.515 0.109-0.64 1.6-0.273 3.323 0.364 1.723 1.087 3.033 1.6 2.924 0.516-0.108 0.641-1.6 0.277-3.32-0.368-1.723-1.087-3.039-1.604-2.927zM29.969 21.656c-0.173-0.073-0.64 0.628-1.040 1.565-0.396 0.94-0.576 1.764-0.4 1.837 0.173 0.075 0.64-0.627 1.036-1.564 0.396-0.94 0.577-1.765 0.404-1.839zM17.299 22.205c-0.093 0.041-0.032 0.413 0.14 0.828 0.176 0.416 0.397 0.723 0.489 0.685 0.096-0.041 0.036-0.413-0.14-0.828-0.173-0.416-0.393-0.724-0.489-0.685zM16.499 22.88c-0.047-0.007-0.083 0-0.104 0.023-0.080 0.093 0.116 0.396 0.432 0.68 0.317 0.284 0.641 0.44 0.721 0.352 0.080-0.089-0.111-0.396-0.427-0.68-0.237-0.211-0.48-0.355-0.623-0.375zM16.2 23.788c-0.157 0-0.26 0.025-0.271 0.076-0.023 0.105 0.327 0.272 0.78 0.377 0.457 0.103 0.848 0.103 0.871 0 0.021-0.103-0.328-0.272-0.781-0.375-0.178-0.045-0.384-0.073-0.595-0.079l-0.004-0zM18.027 24.068c-0.347 0-0.635 1-0.635 2.233s0.287 2.235 0.636 2.235c0.347 0 0.637-1 0.637-2.235s-0.289-2.235-0.639-2.233zM11.127 24.512c-0.067 0.002-0.128 0.024-0.178 0.061l0.001-0.001c-0.392 0.288 0.053 1.56 0.992 2.84 0.937 1.283 2.019 2.085 2.409 1.8 0.393-0.287-0.047-1.561-0.987-2.84-0.823-1.123-1.753-1.88-2.237-1.86zM28.487 25.208c-0.14-0.125-0.801 0.396-1.473 1.164-0.671 0.767-1.099 1.492-0.957 1.617 0.144 0.124 0.804-0.397 1.476-1.164 0.672-0.768 1.1-1.493 0.955-1.617zM13.801 25.799c-0.151-0.007-0.259 0.025-0.307 0.099-0.192 0.297 0.613 1.167 1.804 1.937 1.187 0.773 2.307 1.163 2.5 0.865 0.195-0.297-0.613-1.169-1.8-1.943-0.889-0.579-1.744-0.939-2.197-0.959zM11.64 27.268c-0.355 0-0.64 1-0.64 2.233 0 1.235 0.285 2.235 0.64 2.235s0.643-1 0.643-2.235c0-1.233-0.288-2.233-0.643-2.233zM6.781 27.348c-0.096 0.041-0.035 0.417 0.137 0.833 0.176 0.416 0.396 0.719 0.493 0.68 0.099-0.041 0.033-0.416-0.139-0.831-0.173-0.416-0.393-0.72-0.492-0.683zM25.843 27.984c-0.491-0.053-1.503 0.169-2.613 0.604-1.476 0.579-2.572 1.312-2.444 1.637 0.128 0.323 1.432 0.124 2.908-0.456 1.48-0.579 2.576-1.313 2.448-1.64-0.032-0.080-0.136-0.128-0.299-0.145zM5.979 28.023c-0.047-0.007-0.081 0-0.101 0.024-0.083 0.089 0.109 0.397 0.429 0.681 0.32 0.288 0.644 0.444 0.727 0.355 0.080-0.093-0.112-0.397-0.432-0.685-0.24-0.213-0.483-0.356-0.623-0.375zM5.681 28.936c-0.157 0-0.261 0.025-0.273 0.076-0.021 0.107 0.331 0.272 0.784 0.377 0.457 0.103 0.848 0.103 0.871 0 0.021-0.103-0.331-0.272-0.784-0.375-0.178-0.045-0.383-0.073-0.594-0.079l-0.003-0zM7.401 28.999c-0.152-0.007-0.259 0.025-0.308 0.1-0.192 0.297 0.615 1.167 1.804 1.937 1.187 0.773 2.308 1.161 2.5 0.864 0.196-0.297-0.613-1.169-1.8-1.943-0.888-0.577-1.743-0.939-2.196-0.959zM16.239 29.119c-1.153-0.048-1.991 0.108-2.036 0.427-0.061 0.423 1.307 0.973 3.052 1.227 1.748 0.253 3.22 0.116 3.28-0.309 0.061-0.423-1.307-0.973-3.056-1.227-0.353-0.055-0.78-0.097-1.214-0.116l-0.026-0.001z"></path>
</symbol>
<symbol id="icon-freebsd" viewBox="0 0 32 32">
<path fill="#ab2b28" style="fill: var(--color4, #ab2b28)" d="M31.633 0.784c1.697 1.696-3.005 9.149-3.8 9.944-0.796 0.795-2.815 0.064-4.511-1.632s-2.427-3.716-1.632-4.511 8.248-5.497 9.943-3.801zM7.847 2.579c-2.589-1.469-6.273-3.104-7.447-1.932-1.187 1.187 0.507 4.956 1.992 7.551 1.32-2.297 3.2-4.232 5.455-5.619zM29.047 10.144c0.239 0.808 0.196 1.476-0.191 1.863-0.904 0.904-3.344-0.059-5.543-2.152-0.163-0.146-0.311-0.286-0.456-0.431l0 0c-0.796-0.796-1.413-1.643-1.811-2.423-0.771-1.381-0.963-2.603-0.38-3.184 0.317-0.317 0.824-0.404 1.444-0.293 0.404-0.255 0.88-0.54 1.403-0.831-2.055-1.093-4.493-1.735-7.082-1.735-0.009 0-0.018 0-0.026 0h0.001c-8.504 0-15.397 6.893-15.397 15.397 0 8.503 6.893 15.397 15.397 15.397s15.399-6.893 15.399-15.397c0-2.747-0.72-5.321-1.98-7.555-0.324 0.598-0.583 1.037-0.852 1.468l0.073-0.125z"></path>
</symbol>
<symbol id="icon-gimp" viewBox="0 0 32 32">
<path fill="#5c5543" style="fill: var(--color5, #5c5543)" d="M31.44 3.2c-1.284 1.608-3.4 8.635-15.28 8.947-5.671 0.149-8.48-6.308-8.48-6.308l-0.445 10.361c-1.108-1.389-2.593-2.273-4.019-2.32-0.042-0.002-0.092-0.003-0.142-0.003-0.671 0-1.29 0.222-1.787 0.597l0.008-0.005c-0.884 0.669-1.303 1.793-1.293 3.040 0.008 1.245 0.44 2.62 1.293 3.861s1.968 2.116 3.099 2.52c0.608 0.219 1.221 0.285 1.8 0.209 8.039 6.411 29.536 11.311 25.247-20.899zM11.205 11.8c1.687 0 3.085 1.253 3.485 2.928 0.645-1.587 2.152-2.703 3.908-2.703 2.344 0 4.237 1.987 4.237 4.429 0 2.444-1.893 4.445-4.237 4.445-2.041 0-3.747-1.52-4.153-3.525-0.583 1.304-1.804 2.221-3.24 2.221-1.22 0-2.288-0.663-2.937-1.661-0.135-0.304-0.263-0.552-0.405-0.792l0.019 0.036c-0.173-0.44-0.273-0.95-0.273-1.483 0-0.001 0-0.001 0-0.002v0c0-2.139 1.597-3.896 3.596-3.895zM11.205 12.28c-1.712 0-3.107 1.517-3.107 3.415s1.395 3.412 3.107 3.412c0.285 0 0.556-0.057 0.819-0.136-1.197-0.048-2.151-1.078-2.152-2.341v-0c0.001-1.295 1.001-2.344 2.235-2.344v0c1.060 0 1.948 0.775 2.177 1.815l0.003 0.016c0.016-0.14 0.039-0.276 0.039-0.421 0-1.897-1.408-3.413-3.12-3.415zM18.599 12.455c-2.101 0-3.813 1.779-3.813 4 0 2.223 1.712 4.011 3.813 4.011 0.788 0 1.52-0.251 2.128-0.683-0.337 0.159-0.73 0.252-1.144 0.253h-0c-1.579-0.002-2.859-1.345-2.859-3.003v0c0-1.657 1.28-3.001 2.859-3.003h0c0.001 0 0.001 0 0.002 0 1.397 0 2.561 1.051 2.811 2.441l0.003 0.019 0.004-0.035c0-2.223-1.703-4-3.804-4.001zM3.205 14.308c1.384 0.047 2.941 1.027 4.011 2.581 0.808 1.176 1.219 2.488 1.227 3.636s-0.376 2.119-1.128 2.688c-0.752 0.568-1.747 0.64-2.776 0.273-1.029-0.369-2.085-1.177-2.893-2.352-0.807-1.175-1.215-2.489-1.223-3.637-0.009-1.149 0.376-2.119 1.127-2.688 0.421-0.315 0.951-0.505 1.526-0.505 0.046 0 0.091 0.001 0.136 0.004l-0.006-0zM18.792 14.635c0 0 0 0 0 0-0.741 0-1.341 0.63-1.341 1.408 0 0.001 0 0.003 0 0.004v-0c0.001 0.776 0.601 1.405 1.341 1.405 0 0 0 0 0 0v0c0.739-0.001 1.339-0.629 1.34-1.405v-0c0-0.001 0-0.003 0-0.004 0-0.777-0.6-1.407-1.34-1.408h-0zM11.265 14.928c0 0 0 0 0 0-0.487 0-0.882 0.414-0.883 0.925v0c0 0.001 0 0.002 0 0.003 0 0.512 0.395 0.927 0.883 0.927 0 0 0 0 0 0v0c0 0 0 0 0 0 0.487 0 0.883-0.415 0.883-0.927 0-0.001 0-0.002 0-0.003v0c-0.001-0.511-0.396-0.925-0.883-0.925v0zM2.713 15.225c-0 0-0.001 0-0.001 0-0.823 0-1.49 0.84-1.491 1.876v0c0 0 0 0 0 0 0 1.037 0.667 1.877 1.491 1.877 0.001 0 0.002 0 0.003 0h-0c0.822-0.002 1.488-0.842 1.488-1.877 0 0 0 0 0 0v0c-0.001-1.036-0.667-1.875-1.489-1.876h-0zM21.615 20.556c0 0 1.983 0.58 2.681 1.527 0.697 0.944 0.259 1.527 0.076 2.733-0.269-0.704-0.543-1.256-0.828-1.577-1.080 1.679-4.139 2.477-8.24 2.079 1.84-0.096 3.268-0.384 4.401-0.779-1.867 0.12-4.285-0.36-7.153-1.423 5.683 1.193 8.577 0.084 10.271-1.288-0.447-0.607-1.208-1.272-1.208-1.272z"></path>
</symbol>
<symbol id="icon-gnu" viewBox="0 0 32 32">
<path fill="#a42e2b" style="fill: var(--color6, #a42e2b)" d="M6.763 18.576c-0.295 0.016-0.559 0.188-0.692 0.451-0.153 0.281-0.519 0.323-0.689 0.268-0.28-0.093-0.641-0.159-0.992 0.091s-0.728 0.060-0.66-0.396c0.065-0.453 0.229-0.86 0.665-1.107 0.952-0.547 0.289-0.927 0.811-1.479 0.525-0.549 0.409-0.716 0.391-1.465-1.768-0.267-2.771-0.776-3.888-2.175-1.119-1.396-1.553-2.547-1.668-4.299-0.117-1.756-0.015-2.892 0.743-4.348 0.757-1.451 1.557-2.151 2.936-2.877 1.38-0.731 2.735-0.903 3.985-0.881 1.252 0.020 2.085 0.111 2.792 0.516 0.708 0.404 1.355 0.912 1.765 0.913 0.32 0.020 0.636-0.071 0.897-0.256 0.053 1.36-1.171 1.477-2.264 1.507-1.093 0.028-1.765-0.423-2.773-0.256-1.005 0.171-2.656 0.628-3.46 2.027-0.804 1.4-0.832 1.893-0.764 3.068 0.065 1.171 1.075 2.045 1.645 2.056 0.571 0.009 0.697-0.156 1.197-0.48 0.499-0.328 3.045-3.48 3.912-4.187 0.871-0.708 1.728-0.928 2.653-0.94 0.927-0.011 1.161 0.020 1.911 0.328 0.747 0.305 1.205 0.869 1.808 1.213 0.307-0.18 0.5-0.452 0.779-0.66 1.013-0.736 1.536-0.936 2.737-0.82 0.691 0.069 1.559 0.463 2.080 0.915 0.924 0.805 1.688 1.921 2.304 2.772 0.48 0.663 1.047 1.455 1.856 1.703 0.879 0.268 1.543-0.869 1.64-1.505 0.057-0.36 0.129-0.675 0.129-1.068 0-0.396-0.040-0.873-0.153-1.287-0.12-0.409-0.296-0.799-0.523-1.159-0.344-0.555-0.907-1.133-1.488-1.429-0.328-0.167-1.101-0.471-1.588-0.481-0.597-0.013-1.052 0.188-1.603 0.225-0.667 0.045-1.861 0.195-2.381-0.32-0.335-0.328-0.377-0.548-0.432-0.975 0.145 0.123 0.352 0.2 0.535 0.217 0.417 0.035 0.807-0.305 1.145-0.504 0.28-0.164 0.672-0.453 1.037-0.6 0.939-0.38 2.091-0.371 3.080-0.267 0.793 0.080 1.824 0.432 2.52 0.828 0.701 0.395 1.375 1.063 1.867 1.691 0.621 0.792 0.961 1.472 1.185 2.459 0.288 1.26 0.369 3.153 0.020 4.399-0.273 0.979-1.183 2.481-1.956 3.219-0.764 0.729-1.647 1.081-2.648 1.273 0.040 0.199 0.044 0.388 0.095 0.555 0.075 0.237 0.217 0.5 0.507 0.417 0.115-0.033 0.177-0.063 0.328 0.071 0.153 0.133 0.075 0.647-0.355 0.88-0.219 0.115-0.445 0.14-0.793 0.149-0.425 0.016-0.852-0.005-1.271-0.061-0.377-0.063-0.601-0.364-1.020-0.412-0.647-0.073-1.14-0.54-1.66-0.872-0.216-0.139-0.291-0.139-0.415-0.211 0.068 0.205 0.157 0.419 0.201 0.62 0.045 0.195 0.027 0.38 0.049 0.539 0.025 0.159 0.069 0.281 0.093 0.412 0.103 0.091 0.137 0.231 0.311 0.276 0.173 0.047 0.445-0.024 0.624-0.049 0.18-0.024 0.299-0.12 0.437-0.093 0.14 0.027 0.272 0.128 0.389 0.221s0.219 0.107 0.312 0.339c0.093 0.237 0.18 0.716 0.195 1.036 0.012 0.32-0.024 0.607-0.119 0.864-0.093 0.252-0.18 0.364-0.436 0.617s-0.675 0.62-1.092 0.88c0.077 0.112 0.111 0.216 0.231 0.339 0.12 0.125 0.369 0.263 0.479 0.393 0.113 0.131 0.171 0.224 0.171 0.369 0.016 0.175-0.028 0.349-0.124 0.497-0.297 0.399-0.644 0.469-1.071 0.656 0.072 0.445 0.131 0.763 0.027 1.208-0.040 0.183-0.136 0.593-0.36 0.7-0.225 0.107-0.656 0.055-0.931 0.099-0.273 0.041-0.425 0.084-0.639 0.125-0.131 0.188-0.323 0.396-0.388 0.563-0.065 0.169-0.045 0.229 0.008 0.399 0.056 0.172 0.247 0.421 0.3 0.625 0.052 0.2 0.065 0.415 0.015 0.617-0.051 0.2-0.156 0.383-0.307 0.528-0.172 0.18-0.509 0.32-0.679 0.461-0.167 0.148-0.336 0.164-0.289 0.404 0.063 0.331 0.545 0.861 0.893 0.992 0.247 0.073 0.509 0.052 0.743-0.055-0.019 0.279-0.26 0.472-0.42 0.659 0.429-0.125 0.848-0.36 1.139-0.672-0.089 0.271-0.4 0.705-0.86 1.088s-0.457 0.305-0.689 0.459c0.419 0.081 0.808 0.060 1.133 0.003-0.263 0.148-0.555 0.243-0.855 0.276-0.385 0.041-0.624 0.011-0.972-0.073s-0.665-0.401-1.085-0.62c0.040 0.159 0.071 0.347 0.247 0.508 0.181 0.159 0.447 0.243 0.732 0.377-0.363-0.039-0.744-0.049-1.099-0.128-0.265-0.063-0.443-0.123-0.637-0.219-0.192-0.093-0.34-0.235-0.512-0.352 0.081 0.156 0.105 0.341 0.245 0.469 0.139 0.131 0.367 0.18 0.549 0.265-0.191-0.005-0.375 0.039-0.573-0.013-0.213-0.049-0.416-0.145-0.591-0.279-0.213-0.159-0.415-0.333-0.593-0.528-0.176-0.193-0.395-0.443-0.46-0.617-0.064-0.177 0.040-0.3 0.059-0.451-0.12 0.081-0.268 0.125-0.363 0.24-0.093 0.117-0.176 0.221-0.135 0.424 0.040 0.2 0.229 0.451 0.361 0.675-0.395-0.323-0.615-0.448-0.708-0.833-0.085-0.364 0.139-0.693 0.311-0.967 0.085-0.139 0.216-0.265 0.295-0.399-0.18-0.172-0.38-0.32-0.533-0.519-0.151-0.2-0.216-0.469-0.369-0.656-0.156-0.191-0.365-0.309-0.547-0.464 0.159 0.341 0.423 0.763 0.479 1.028 0.059 0.265-0.064 0.429-0.159 0.573-0.093 0.143-0.245 0.177-0.389 0.263-0.147 0.091-0.369 0.021-0.456 0.151s-0.111 0.328-0.028 0.459l0.341 0.531c-0.168-0.096-0.313-0.224-0.436-0.375-0.099-0.128-0.248-0.251-0.265-0.421-0.021-0.175-0.031-0.328 0.084-0.484 0.112-0.156 0.424-0.208 0.563-0.328 0.14-0.12 0.216-0.197 0.208-0.352-0.008-0.156-0.159-0.265-0.289-0.364-0.399-0.3-0.907-0.573-1.245-0.932-0.145-0.14-0.255-0.312-0.319-0.505-0.040-0.14 0.001-0.251 0.095-0.419 0.096-0.175 0.42-0.407 0.461-0.591 0.039-0.188-0.127-0.229-0.273-0.295-0.148-0.065-0.429 0.033-0.567-0.081s0.040-0.355-0.115-0.487-0.508-0.060-0.692-0.2c-0.161-0.136-0.273-0.32-0.32-0.527-0.061-0.188-0.071-0.388-0.028-0.581 0.043-0.151 0.171-0.177 0.249-0.255 0.079-0.076 0.144-0.139 0.040-0.255-0.099-0.117-0.44 0.005-0.635-0.14-0.199-0.151-0.080-0.508-0.217-0.659-0.139-0.145-0.383-0.088-0.515-0.139-0.129-0.047-0.18 0.12-0.259-0.145-0.081-0.265-0.084-1.063-0.191-1.36s-0.317-0.021-0.415-0.315c-0.1-0.295-0.005-0.765-0.049-1.211l-0.2-1.213c-0.695 0.469-1.156 0.617-1.904 0.748-0.063 1.831-0.235 2.909 0.388 4.94 0.62 2.028 1.877 3.227 3.573 4.943-2.24-1.675-3.305-3.039-3.975-4.784-0.668-1.748-0.541-3.209-0.475-4.888zM18.655 17.839c0.172 0.008 0.38 0.052 0.501 0.131 0.121 0.081 0.251 0.143 0.36 0.252 0.275 0.281 0.48 0.617 0.571 1.003 0.059 0.248 0.067 0.563 0.085 0.852-0.083-0.265-0.137-0.544-0.256-0.784-0.185-0.38-0.501-0.748-0.896-0.917-0.088-0.041-0.188-0.055-0.285-0.036 0.031 0.055 0.084 0.101 0.087 0.177 0 0.079-0.016 0.232-0.149 0.297-0.213 0.104-0.452 0.028-0.619-0.115-0.169-0.156-0.221-0.401-0.136-0.612 0.105-0.259 0.5-0.259 0.737-0.248zM16.493 17.476c0.023-0.443 0.18-0.812 0.577-1.028 0.249-0.143 0.523-0.24 0.805-0.287 0.276-0.035 0.951-0.011 1.357 0.175 0.309 0.14 0.521 0.361 0.796 0.525 0.273 0.161 0.468 0.268 0.728 0.451 0.4 0.281 0.633 0.585 0.909 0.768 0.135 0.088 0.32 0.076 0.499 0.131-0.139 0.039-0.319 0.085-0.467 0.039-0.212-0.085-0.411-0.203-0.584-0.352-0.205-0.183-0.427-0.344-0.663-0.479-0.165-0.096-0.439-0.211-0.621-0.328-0.18-0.12-0.495-0.377-0.669-0.465-0.276-0.115-0.571-0.172-0.867-0.167-0.341 0.011-0.835 0.067-1.096 0.304-0.263 0.24-0.361 0.448-0.303 0.755 0.097-0.112 0.164-0.255 0.26-0.339 0.205-0.177 0.439-0.185 0.695-0.151 0.287 0.036 0.429 0.2 0.524 0.472-0.063-0.044-0.18-0.145-0.272-0.18-0.192-0.073-0.408-0.052-0.584 0.057-0.239 0.131-0.173 0.32-0.205 0.528-0.017 0.101-0.055 0.177-0.081 0.265-0.089-0.021-0.172-0.065-0.24-0.131 0.001 0.101-0.013 0.188 0.008 0.297 0.019 0.112 0.073 0.245 0.112 0.364-0.168-0.167-0.341-0.32-0.447-0.536-0.115-0.209-0.175-0.449-0.172-0.689zM16.785 14.276c0.121-0.181 0.159-0.46 0.232-0.689-0.028 0.289 0.028 0.604-0.111 0.812-0.14 0.211-0.389 0.172-0.591 0.235 0.157-0.12 0.344-0.175 0.469-0.357zM13.843 18.547c0.159-0.128 0.584-0.027 0.901-0.003l-0.685 0.177c-0.023 0.079-0.013 0.164-0.064 0.232-0.053 0.068-0.152 0.091-0.228 0.139 0.008-0.207-0.083-0.417 0.076-0.545zM16.087 9.677c0.191 0.1 0.428 0.237 0.599 0.24 0.165 0.005 0.211-0.107 0.309-0.175 0.153 0.507 0.333 1.063 0.597 1.523 0.111 0.195 0.181 0.105 0.267 0.299 0.084 0.193 0.12 0.585 0.2 0.835 0.079 0.249 0.183 0.428 0.276 0.644-0.232-0.333-0.535-0.755-0.667-1.031-0.131-0.276-0.047-0.3-0.153-0.561-0.104-0.264-0.317-0.672-0.476-1.008-0.115 0.015-0.253 0.035-0.34 0.008-0.087-0.028-0.072-0.121-0.149-0.179-0.079-0.060-0.211-0.036-0.32-0.133-0.108-0.093-0.133-0.289-0.143-0.461zM15.064 12.177c0.18-0.016 0.399 0.031 0.567 0.023s0.288-0.052 0.433-0.080c-0.028-0.252-0.003-0.716-0.235-0.885-0.153-0.107-0.771-0.027-0.935 0.008-0.372 0.081-0.805 0.303-1.164 0.44 0.344-0.24 0.641-0.461 1.055-0.585 0.251-0.073 0.828-0.172 1.084-0.101 0.119 0.031 0.14 0.081 0.212 0.18 0.244 0.34 0.244 0.633 0.305 1.031 0.063 0.095 0.128 0.159 0.18 0.259 0.051 0.124 0.083 0.253 0.091 0.385-0.064-0.092-0.024-0.207-0.199-0.275-0.18-0.071-0.449-0.007-0.689 0.019 0.175 0.128 0.26 0.248 0.268 0.512 0.008 0.311-0.255 0.535-0.531 0.556-0.38 0.029-0.579-0.055-0.732-0.38-0.068-0.143-0.021-0.315-0.024-0.455-0.461 0.032-0.453 0.017-0.789 0.296 0.185 0.268 0.299 0.42 0.601 0.581 0.167 0.088 0.36 0.177 0.567 0.213 0.209 0.036 0.553 0.071 0.775 0.036 0.193-0.024 0.371-0.109 0.505-0.249 0.164-0.149 0.18-0.365 0.243-0.537-0.005 0.169-0.036 0.336-0.093 0.495-0.187 0.36-0.507 0.469-0.891 0.469-0.367 0-0.821-0.084-1.164-0.225-0.273-0.113-0.727-0.433-0.833-0.712-0.075-0.191-0.016-0.424-0.024-0.636 0.38-0.252 0.472-0.191 0.919-0.264 0.188-0.033 0.319-0.101 0.499-0.117zM12.857 10.472c0.009-0.152 0.028-0.148 0.040-0.223-0.345-0.092-0.481 0.132-0.685 0.548-0.076 0.153 0 0.248-0.083 0.351-0.079 0.101-0.212 0.087-0.343 0.185s-0.261 0.287-0.385 0.389c-0.252 0.208-0.596 0.335-0.889 0.477 0.2-0.148 0.591-0.372 0.717-0.585 0.067-0.115 0.056-0.329 0.16-0.433 0.104-0.1 0.14-0.173 0.273-0.199s0.081-0.181 0.124-0.305c0.043-0.121 0.129-0.211 0.22-0.335s0.208-0.307 0.388-0.376c0.18-0.065 0.463 0.007 0.6-0.031 0.136-0.039 0.057-0.14 0.157-0.2s0.292-0.031 0.427-0.096c0.235-0.112 0.347-0.303 0.489-0.503 0.020 0.435 0.013 0.748-0.143 1.159-0.175 0.461-0.355 0.733-0.855 1.017-0.171 0.096-0.343 0.131-0.487 0.183 0.083-0.115 0.203-0.164 0.251-0.341 0.045-0.181 0.012-0.533 0.023-0.683zM20.936 12.595c-0.236 0.019-0.292-0.016-0.484 0.121l0.309 0.48c-0.008-0.316 0.024-0.38 0.177-0.601zM20.316 12.365c0.328-0.139 0.615-0.252 0.973-0.276 0.143-0.011 0.365 0.012 0.511 0.021 0.125-0.183 0.281-0.325 0.341-0.533 0.037-0.139 0.020-0.779-0.051-0.945-0.195-0.481-0.387-0.503-0.66-0.78-0.195-0.199-0.203-0.507-0.263-0.851-0.020-0.125-0.083-0.284-0.112-0.413-0.377-0.061-0.76-0.083-1.143-0.060 0.197-0.191 0.388-0.361 0.445-0.648 0.060-0.305 0.005-0.621-0.151-0.889-0.161-0.255-0.42-0.48-0.659-0.689-0.237-0.207-0.581-0.379-0.805-0.549 0.295-0.103 0.592-0.259 0.88-0.313 0.748-0.144 1.391 0.076 2.112 0.512 0.42 0.253 0.764 0.493 1.203 0.955 0.439 0.459 0.98 1.3 1.405 1.797 0.423 0.5 0.767 0.893 1.137 1.191 0.368 0.301 0.704 0.385 1.056 0.575l0.549 0.584 0.447-0.551 0.713 0.080 0.148-0.801 0.653-0.181-0.105-1.081 0.472-0.336-0.356-0.672 0.36-0.737-0.469-0.84 0.18-0.809-0.543-0.464-0.071-0.861-0.759-0.289-0.303-0.748-0.853-0.009-0.42-0.556-0.575 0.040-0.639-0.071-0.36-0.265-0.528 0.347-0.636-0.331-1.263 0.479 0.824-0.716 0.853-0.136 0.653-0.168 0.884 0.291 0.776-0.196 0.751 0.441 0.795-0.041 0.391 0.7 0.788 0.089 0.427 0.775 0.496 0.273 0.133 0.995 0.444 0.42-0.197 0.871 0.52 0.659-0.484 0.705 0.52 0.443-0.665 0.591 0.675 0.705-0.817 0.267 0.531 0.755-0.668 0.117 0.437 0.829-0.751-0.011 0.38 0.621-0.828-0.099 0.197 0.896-0.624-0.548-0.212 1.085-0.429-0.78-0.233 0.973-0.529-0.716 0.015 1.020-0.585-0.917c0.121 0.521 0.097 1.089 0.439 1.58 1.059-0.143 1.749-0.409 2.561-1.189 0.736-0.711 1.619-2.192 1.859-3.133 0.272-1.069 0.28-3.041 0.012-4.135-0.259-1.049-0.595-1.551-1.195-2.409-0.573-0.607-1.137-1.252-1.865-1.685-1.071-0.64-2.439-0.811-3.656-0.795-0.524 0.001-1.041 0.099-1.531 0.287-0.703 0.255-1.267 0.815-1.983 1.091-0.233 0.089-0.42 0.091-0.605-0.005 0.18 0.36 0.375 0.521 0.825 0.652 0.325 0.095 1.1 0.035 1.636-0.015 0.573-0.052 0.872-0.223 1.652-0.213 0.76 0.013 1.365 0.3 1.696 0.491 0.681 0.389 1.169 0.819 1.595 1.505 0.233 0.376 0.397 0.801 0.511 1.233 0.115 0.432 0.165 0.917 0.173 1.341s-0.025 0.803-0.129 1.184c-0.243 0.892-0.777 1.8-1.876 1.66-0.672-0.084-1.684-1.347-2.024-1.809-0.687-0.935-1.391-1.969-2.251-2.745-0.543-0.488-1.227-0.792-1.951-0.867-1.323-0.12-1.716 0.131-2.711 0.953 0.201 0.063 0.399 0.099 0.607 0.193 0.461 0.208 0.883 0.476 1.251 0.82 0.387 0.36 0.56 0.589 0.573 1.105 0.009 0.345-0.272 0.62-0.532 0.865-0.157 0.152-0.367 0.291-0.496 0.409-0.169 0.156-0.38 0.328-0.165 0.576 0.080 0.093 0.22 0.164 0.336 0.252 0.188 0.137 0.1 0.651-0.144 0.789-0.301 0.181-0.684 0.148-0.951-0.081 0.328-0.047 0.536-0.091 0.527-0.36-0.003-0.153-0.199-0.284-0.396-0.372-0.467-0.213-0.819-0.18-1.284-0.516-0.471-0.339-0.479-0.524-0.607-1.053-0.227 0.023-0.436 0.028-0.74 0.129-0.301 0.099-0.637 0.339-0.912 0.399-0.693 0.148-0.831 0.104-1.209 0.008-0.668-0.176-1.535 0.12-2.4 0.399-0.143 0.044-0.724 0-1.115 0.136-0.704 0.279-1.359 0.661-1.943 1.137-0.741 0.625-1.715 2.492-2.264 4.636-0.060 0.653 0.127 1.091-0.284 1.409-0.411 0.32-0.4 1.135-0.54 1.364-0.137 0.227-0.3 0.125-0.6 0.448-0.297 0.32-0.449 0.268-0.443 0.872 0.26-0.167 0.636-0.364 0.967-0.38 0.295-0.008 0.296 0.377 1.047-0.364 0.401-0.399 1.175-0.412 1.711-0.585s1.5-0.536 2.468-1.616c0.965-1.080 1.428-2.219 1.616-3.861 0.027 0.287 0.080 0.617-0.044 1.42-0.127 0.805-0.395 1.707 0.172 2.792l0.353 0.672c-0.209-0.287-0.62-0.755-0.747-1.088l-0.281-0.771c-0.64 1.004-0.787 1.183-1.673 1.9-0.035 0.445-0.044 0.909 0.101 1.336 0.144 0.427-0.085 0.917 0.027 1.2 0.109 0.279 0.364 0.12 0.448 0.404s-0.043 0.847 0.085 1.123c0.132 0.276 0.449 0.109 0.604 0.2 0.153 0.088 0.205 0.211 0.287 0.328 0.084 0.117-0.031 0.396 0.137 0.487 0.168 0.088 0.427 0.013 0.604 0.099 0.173 0.088 0.199 0.297 0.159 0.481-0.043 0.188-0.229 0.273-0.311 0.464-0.083 0.159-0.073 0.349 0.027 0.497 0.099 0.175 0.315 0.268 0.533 0.36 0.216 0.085 0.521 0.036 0.745 0.159 0.225 0.12 0.427 0.364 0.544 0.541 0.119 0.175 0.151 0.3 0.145 0.484-0.019 0.205-0.079 0.401-0.183 0.579-0.099 0.18-0.315 0.399 0.027 0.74 0.339 0.339 0.328 0.193 0.524 0.417-0.023-0.385-0.18-0.695-0.065-0.984 0.117-0.289 0.465-0.341 0.645-0.469 0.185-0.133 0.292-0.309 0.435-0.464 0 0.197 0.020 0.412-0.003 0.56-0.044 0.303-0.136 0.576 0.316 0.623 0.204 0.021 0.399-0.109 0.612-0.188-0.112 0.197-0.307 0.36-0.337 0.601-0.037 0.26 0.024 0.527 0.173 0.745 0.165 0.24 0.455 0.417 0.665 0.555 0.211 0.14 0.325 0.153 0.487 0.232 0.008 0.235-0.040 0.484-0.012 0.708 0.025 0.224 0.097 0.419 0.225 0.604 0.131 0.188 0.336 0.292 0.531 0.427-0.107-0.251-0.323-0.487-0.32-0.748s0.080-0.445 0.336-0.68c0.255-0.232 0.852-0.432 1.133-0.659 0.208-0.145 0.372-0.347 0.473-0.581 0.1-0.219 0.073-0.573 0.092-0.768 0.092 0.273 0.105 0.36 0.137 0.648 0.028 0.289-0.169 0.695-0.252 0.907 0.304-0.14 0.545-0.391 0.68-0.7 0.076 0.047 0.037 0.167 0.065 0.401 0.125-0.123 0.265-0.216 0.391-0.333s0.26-0.219 0.324-0.383c0.061-0.161 0.036-0.336-0.009-0.524-0.047-0.191-0.257-0.409-0.372-0.617-0.112-0.203 0.021-0.407 0.013-0.656-0.227-0.039-0.419-0.156-0.683-0.117-0.26 0.039-0.56 0.331-0.828 0.336-0.265 0-0.419-0.251-0.637-0.317-0.22-0.071-0.44-0.060-0.66-0.093 0.279-0.265 1.361-0.393 2.101-0.513 0.648-0.109 1.304-0.167 1.96-0.177 0.295-0.008 0.675 0.091 0.881 0.033 0.203-0.060 0.159-0.2 0.219-0.352 0.172-0.424 0.088-0.805-0.005-1.232-0.592-0.071-1.211-0.153-1.808-0.109-0.584 0.044-1.275 0.323-1.879 0.341-0.523 0.019-1.301-0.099-1.749-0.375-0.551-0.333-0.975-1.052-1.127-1.287-0.245-0.375-0.555-1.115-0.745-1.451-0.188-0.339-0.231-0.432-0.387-0.573-0.157-0.14-0.371-0.151-0.559-0.227 0.215 0.019 0.448-0.047 0.643 0.063 0.295 0.169 0.62 0.864 0.803 1.169 0.193-0.648 0.148-0.901 0.705-1.268-0.448 0.505-0.461 0.888-0.571 1.481 0.375 0.612 0.893 1.591 1.573 1.861 0.248 0.099 0.669 0.159 0.935 0.193 0.828 0.101 1.627-0.159 2.437-0.36 0.593-0.148 1.196-0.088 1.917-0.047 0.244 0.016 0.821-0.133 0.943-0.377 0.069-0.143 0.056-0.309-0.032-0.44-0.093-0.14-0.34-0.211-0.473-0.339-0.132-0.131-0.208-0.281-0.313-0.419-0.467 0.091-0.939 0.14-1.416 0.153 0.295-0.12 0.577-0.188 0.88-0.307 0.316-0.131 0.617-0.292 0.901-0.479 0.248-0.164 0.404-0.257 0.584-0.445 0.179-0.191 0.407-0.385 0.539-0.617s0.152-0.492 0.16-0.779c0.005-0.287-0.007-0.688-0.117-0.921-0.112-0.229-0.324-0.3-0.496-0.352-0.169-0.055-0.288 0.084-0.465 0.101-0.179 0.019-0.344 0.128-0.603 0.008-0.331-0.172-0.615-0.424-0.823-0.732-0.261-0.365-0.447-0.964-0.712-1.424-0.457-0.795-1.028-1.532-1.572-2.269-0.047-0.18-0.112-0.432-0.136-0.677-0.041-0.429-0.047-0.875 0.087-1.292 0.1-0.32 0.251-0.659 0.584-0.789 0.133-0.057 0.283-0.068 0.423-0.029 0.12 0.043 0.239 0.18 0.189 0.336-0.052 0.172-0.169 0.179-0.251 0.264-0.121 0.121-0.204 0.273-0.244 0.44 0.148-0.005 0.349-0.015 0.472 0.017 0.16 0.040 0.305 0.147 0.388 0.372-0.191-0.168-0.284-0.247-0.52-0.251-0.111-0.003-0.243 0.035-0.361 0.055-0.045 0.144-0.072 0.324-0.135 0.439-0.065 0.112-0.188 0.084-0.235 0.215-0.044 0.171-0.052 0.348-0.027 0.521zM21.972 12.167c0.075 0.028 0.1 0.036 0.195 0.107 0.092 0.069 0.22 0.139 0.293 0.305 0.059 0.172 0.077 0.355 0.053 0.533-0.064-0.020-0.151-0.007-0.217-0.063-0.067-0.057-0.105-0.187-0.191-0.24-0.087-0.057-0.156-0.045-0.251-0.057 0.051 0.128 0.067 0.265 0.048 0.401-0.048 0.271-0.208 0.409-0.469 0.44-0.112 0.016-0.292-0.021-0.389-0.039 0.045 0.1 0.121 0.191 0.168 0.292 0.219-0.031 0.38-0.027 0.5-0.081 0.117-0.055 0.244-0.18 0.395-0.231 0.151-0.052 0.285-0.052 0.451-0.079-0.131 0.112-0.216 0.223-0.345 0.337l0.285 0.831c0.203 0.128 0.392 0.195 0.647 0.351 0.255 0.155 0.56 0.436 0.893 0.587 0.332 0.151 0.528 0.236 0.876 0.3 0.345 0.067 0.623 0.349 0.963 0.395 0.34 0.043 0.98 0.055 1.243 0.028 0.3-0.028 0.688-0.181 0.723-0.509-0.251 0.060-0.633 0.007-0.825-0.465-0.085-0.209-0.045-0.596-0.176-0.841-0.132-0.249-0.315-0.328-0.533-0.633s-0.575-0.785-0.773-1.193c-0.2-0.411-0.251-0.872-0.417-1.239-0.171-0.365-0.425-0.66-0.625-0.944-0.432-0.617-0.78-1.036-1.493-1.348-0.344-0.149-0.735-0.191-1.099-0.284-0.151 0.067-0.357 0.139-0.393 0.316-0.028 0.2 0.028 0.407 0.16 0.561 0.212 0.22 0.527 0.456 0.649 0.804 0.081 0.224 0.101 0.973 0.033 1.177-0.072 0.213-0.237 0.343-0.376 0.481zM22.041 13.941c-0.065 0.057-0.116 0.116-0.223 0.163-0.107 0.048-0.252 0.060-0.393 0.095 0.197 0.308 0.407 0.621 0.596 0.945 0.191 0.323 0.355 0.68 0.535 1.020-0.009-0.196 0.003-0.403-0.025-0.584s-0.111-0.339-0.193-0.615c-0.080-0.275-0.18-0.645-0.296-1.024zM16.709 7.159c-0.028 0.301 0.025 0.775 0.085 1.075 0.077 0.356 0.148 0.539 0.437 0.752 0.528 0.393 0.864 0.327 1.273 0.555 0.193 0.108 0.437 0.289 0.509 0.479 0.071 0.195-0.048 0.401-0.195 0.484 0.256 0.039 0.544-0.252 0.424-0.547-0.060-0.145-0.34-0.213-0.427-0.361-0.079-0.136-0.093-0.299-0.044-0.447 0.071-0.269 0.605-0.517 0.796-0.728 0.291-0.331 0.4-0.604 0.236-1.027-0.229-0.593-1.123-1.072-1.656-1.305-0.244-0.107-0.383-0.112-0.572-0.172 0.389 0.232 0.801 0.413 1 0.921 0.164 0.428 0.020 0.591 0.028 0.961 0.003 0.173 0.229 0.26 0.331 0.367 0.085 0.096 0.080 0.167 0.011 0.297-0.005-0.107-0.060-0.205-0.148-0.265-0.149-0.107-0.312-0.084-0.392-0.3-0.12-0.331 0.121-0.645-0.149-1.016-0.2-0.277-0.471-0.588-0.833-0.596-0.164-0.001-0.325 0.024-0.48 0.077l-0.244-0.293-0.007-0.004c-0.496-0.452-0.836-0.825-1.529-1.136-0.696-0.312-1.040-0.36-1.839-0.341-0.796 0.017-1.587 0.084-2.511 0.88-0.925 0.8-3.308 3.851-3.887 4.236-0.575 0.385-0.703 0.519-1.424 0.519s-1.849-1.021-1.893-2.297c-0.043-1.275-0.060-1.729 0.825-3.265 0.888-1.536 2.492-2.008 3.685-2.167 1.193-0.161 1.909 0.259 2.789 0.26 0.88 0.003 1.752-0.148 2.011-0.849-0.127 0.075-0.295 0.16-0.769 0.135-0.473-0.025-1.132-0.575-1.869-0.941-0.74-0.368-1.56-0.412-2.616-0.431-1.053-0.020-2.369 0.060-3.673 0.765-1.304 0.7-2.193 1.447-2.951 2.827-0.757 1.377-0.869 2.5-0.747 4.169 0.12 1.667 0.636 2.908 1.625 4.131 0.992 1.219 1.981 1.817 3.765 2.039l0.377-1.656-0.672 0.961 0.019-1.071-0.607 0.753-0.269-1.023-0.489 0.82-0.244-1.14-0.715 0.576 0.227-0.94-0.943 0.104 0.432-0.655-0.859 0.008 0.5-0.871-0.76-0.121 0.605-0.795-0.931-0.275 0.771-0.74-0.764-0.623 0.597-0.464-0.56-0.745 0.597-0.693-0.223-0.913 0.505-0.439 0.151-1.048 0.568-0.285 0.488-0.815 0.903-0.096 0.445-0.737 0.907 0.047 0.856-0.464 0.888 0.205 1.008-0.304 0.749 0.173 0.975 0.144 0.94 0.752-1.441-0.503-0.725 0.347-0.601-0.364-0.413 0.279-0.733 0.076-0.655-0.040-0.477 0.581-0.976 0.009-0.347 0.785-0.867 0.304-0.081 0.904-0.623 0.488 0.207 0.849-0.536 0.885 0.413 0.775-0.407 0.705 0.539 0.352-0.12 1.137 0.751 0.188 0.167 0.844 0.817-0.084 0.508 0.579 0.627-0.615c1.144-0.571 1.616-0.891 2.509-1.855 1.012-1.097 1.595-2.112 2.944-2.863 0.972-0.54 1.761-0.735 2.852-0.544 1.021 0.176 1.365 0.791 2.12 1.436 0.081-0.145 0.093-0.185 0.225-0.291-0.040 0.189-0.105 0.383-0.124 0.564z"></path>
</symbol>
<symbol id="icon-gnuicecat" viewBox="0 0 32 32">
<path fill="#002f5b" style="fill: var(--color7, #002f5b)" d="M13.915-0.073c-0.488 0.008-0.992 0.040-1.519 0.1-6.395 0.723-10.149 6.048-10.367 12.505-1.497 2.935-1.937 6.388-0.965 9.765 1.861 6.471 8.288 10.38 14.892 9.605l1.212-0.143c6.608 0.436 8.017-1.365 9.599-5.757 0.167-0.363 0.408-1.027 0.759-2.099 0.009-0.051 0.021-0.103 0.028-0.128 1.052-2.869 1.207-6.109 0.32-9.188-0.107-0.369-0.228-0.731-0.364-1.083-0.040-0.253-0.032-0.56 0.012-0.8 0.387-0.633 0.867-1.111 1.439-1.467l0.364-2.501c0.383-0.431 0.236-0.801 0.253-1.415 0.223-0.105 0.345-0.285 0.439-0.573 0.103-0.317 0.597-0.917 1.151-1.383 0.085-0.252 0.299-0.765 0.296-1.193-2.651 0.303-4.316 0.812-5.647-0.816l-0.711-0.277c-0.32-0.496-0.896-0.78-1.308-1.268l-0.467 1.617c-0.575-0.356-3.665-3.595-9.416-3.503zM14.103 0.988c3.46 0.049 6.631 1.796 8.295 3.047l-1.268 0.473-0.799-0.509-0.36 1.051v0.435l-0.979 2.356-0.107-0.036 0.505-2.103 0.763-2.027-0.256-0.217-1.123 1.229c-0.239 1.308-0.12 3.152-0.723 3.916 0.188-1.536 0.455-2.879 0.471-4.675l-0.652-0.217c-0.151 0.795-0.353 1.704-0.509 2.209l0.217-2.28-0.832 0.54v1.304l-0.217-0.723-0.075-1.304-0.288-0.039-0.217 0.833c0.037 0.363-0.020 0.724 0.288 1.087l0.075 2.755 0.179 0.328-0.324 1.557 0.036-1.521-0.107-0.107-0.219-2.684-0.364-1.451-0.58-0.36-0.217-0.616-0.616-0.039 1.379 4.931 0.107 1.483c-0.157-0.703-0.151-1.469-0.759-1.992 0.060-0.737-0.048-1.46-0.944-2.103l-1.304-2.679c-0.045-0.317-0.489-0.369-0.799-0.509-0.093 0.427-0.175 0.857 0.111 1.379 0.652 1.036 1.304 2.079 1.956 2.644l0.036 1.268c-0.215-1.169-0.804-1.8-1.016-1.629-0.007-0.953-1.056-1.309-1.664-1.92l-0.075-1.051-0.36-0.075c0.225 0.711-0.292 0.761 0.723 2.173l0.036 0.509c-0.387-0.263-0.772-0.753-1.157-1.304l-0.471-0.833c0.049 0.571-0.233 0.699 0.179 1.703 0.608 0.528 1.155 1.303 1.849 1.485 0 0 0.145 0.253 0 0.253s-0.435-0.111-0.435-0.111c-0.4-0.183-0.781-0.347-1.557-0.905l-0.797-2.355-0.364-0.071 0.075 1.268 0.324 0.143 0.036 0.833c0.141 0.495 0.304 0.691 0.545 0.616-0.136 0.167-0.295 0.203-0.616 0.183-0.269-0.504-0.433-0.996-0.98-1.593l-0.36-1.051-0.217 0.217c-0.079 0.395-0.113 0.813 0 1.304-0.353-0.209-0.877-0.791-1.5-1.093 2.045-2.373 5.205-3.283 7.688-3.328 0.112-0.003 0.224-0.005 0.335-0.004zM24.196 3.913l0.691 0.228 2.024 1.155 2.868 0.025c-0.823 0.323-1.836 0.701-2.483 0.897l-0.82-0.025c-0.648-0.552-1.168-0.817-1.749-1.168-0.704 0.737-1.119 1.38-1.351 2.32l0.203-1.589 0.695-1.564zM6.052 4.355l0.731 1.457 0.036 0.324-0.4-0.143-0.36-0.833-0.399 0.289-0.289-0.172c0.208-0.328 0.437-0.636 0.681-0.923zM10.755 7.44c2.156-0.049 2.497 1.741 2.843 3.399v2.972c0.248 0.024 0.757 1.517 0.652 1.992-0.060 0.272 0.652 1.9 0.603 1.907 0.384 0.371 0.313 0.331 0.62 0.567 0.423 0.325 0.805 1.515 0.571 1.689-0.224 0.165 0.295 0.536 0.417 0.801 0.757 0.676 1.319 1.355 1.308 2.031l0.36 0.652 0.688 0.107 0.181 0.256 0.869 0.107c0.5-0.108 0.427-0.648 0.581-1.016 0.029-0.372-0.077-0.8-0.616-1.268 0.028-0.563 0.099-1.117-0.435-1.775 0.076-0.672-0.415-1.229-0.799-1.809-0.047-0.499-0.263-1.18-0.428-1.841-0.081-0.327-0.12-0.664-0.185-0.987-0.243-2.236 0.077-2.488 0.179-3.695 0.827-1.243 1.26-1.839 1.995-2.103l0.94 1.161c0.464 0.844 0.265 1.925 1.415 2.137l0.028 0.028c0.587-0.529 1.364-0.512 1.996-0.528l-0.076 0.251c-0.761-0.080-1.384-0.099-1.899 0.288l0.513 0.499c0.551-0.715 1.309-0.667 2.056-0.695l0.008 0.276c-0.807-0.107-1.579 0.028-1.996 0.483l0.164 0.157h0.007c0.621-0.485 1.365-0.512 2.069-0.52l-0.139 0.245c-0.707 0.057-1.193 0.009-1.699 0.307 0.391 0.041 0.784 0.076 1.176 0.115l0.147 0.324 0.905 0.075c0.159 0.040 0.288 0.057 0.403 0.060 0.111 0.295 0.211 0.593 0.299 0.901 0.672 2.335 0.669 4.784 0.079 7.044-1.812 4.864-3.739 6.167-7.656 5.904-4.089-0.275-7.391-4.819-10.3-11.044-0.635-1.727-2.188-2.821-3.091-1.899-4.107 4.084 0.527 11.347 2.805 13.1 1.276 0.923 2.565 1.66 3.837 2.231-4.517-0.752-8.379-3.893-9.684-8.429-1.576-5.469 1.025-11.193 5.993-13.932 0.005-0.001 0.013-0.005 0.017-0.007 0.929-0.347 1.673-0.503 2.277-0.517zM24.413 10.167c0.392 0.060 1.12 0.488 1.519 0.887 0.12 0.325-0.181 0.472-0.16 0.663 0.011 0.032 0.005 0.043 0.004 0.043-0.001-0.015-0.003-0.028-0.004-0.043-0.032-0.096-0.561-0.747-1.359-1.549zM26.824 13.081c-0.003 0.337-0.111 0.455-0.256 0.635-0.148 0.012-0.52-0.1-0.684-0.335 0.247-0.284 0.625-0.281 0.94-0.3zM23.036 13.311c-0.079 0.095-0.115 0.209-0.208 0.408 0.121-0.187 0.195-0.268 0.276-0.327zM23.225 13.545c-0.3 0.084-0.516 0.559-0.817 1.231 0.321-0.396 0.543-0.957 0.995-1.136zM7.401 17.435l0.071 1.411-2.209 1.268-0.036-1.051c0.923 0.239 1.535-0.748 2.175-1.628zM8.381 20.441l0.324 0.833-2.789 1.521-0.399-0.944c2.793-1.021 2.313-1.013 2.864-1.411zM9.393 22.361l0.364 0.616c-1.051 0.519-1.917 1.219-2.679 2.027l-0.581-1.157c1.053-0.319 2.044-0.763 2.896-1.485zM10.736 24.1l0.616 0.581c-0.483 1.081-1.48 1.753-2.429 2.461l-0.976-1.123c0.959-0.625 2.175-1.123 2.789-1.92zM12.793 26.109c0.097 0.577-0.296 1.435-1.621 2.701-0.516-0.232-1.049-0.449-1.379-0.869 2.147-1.088 2.699-1.673 2.857-1.961 0.056-0.008 0.149 0.043 0.143 0.129zM14.143 27c0.049 0.511-0.055 1.108 0.253 1.447l0.288 0.075c-0.152 0.628-0.455 1.097-0.435 1.725-1.145-0.277-1.272-0.396-1.703-0.675 1.331-2.069 1.585-2.556 1.596-2.572zM16.024 28.048l1.415 1.632c-0.143 0.78-0.131 1.245 0.399 1.449-0.8-0.044-1.584-0.053-2.244-0.46 0.573-0.852 0.564-1.615 0.431-2.621zM23.14 28.683c0.411 0.625 0.465 0.943 0.876 1.087-0.541 0.525-0.785 0.628-1.421 0.869 0.2-0.405 0.001-0.973-0.179-1.664-0.133-0.256 0.535-0.235 0.724-0.292zM19.141 29.063c2.387 0.712 1.577 1.165 2.309 1.877-0.629 0.132-1.207 0.273-2.212 0.217 0.741-0.549 0.403-1.163-0.097-2.095z"></path>
</symbol>
<symbol id="icon-happycow" viewBox="0 0 32 32">
<path fill="#7c4ec4" style="fill: var(--color8, #7c4ec4)" d="M11.547 1.64c-0.565 0.005-1.232 0.208-1.507 0.315-2.253 0.904-3.707 4.12-2.933 7.36-0.427-0.185-0.819-0.343-0.901-0.373-0.545-0.217-1.193-0.407-1.862-0.538l-0.071-0.012c-1.132-0.208-2.4-0.252-3.373 0.628-0.924 0.84-1.284 2.493-0.361 3.467 0.999 1.044 3.067 0.849 4.36 0.731 0.135-0.013 0.743-0.053 1.333-0.141-0.099 0.602-0.155 1.297-0.155 2.004 0 0.041 0 0.082 0.001 0.122l-0-0.006c-4.973 1.76-4.573 13.467 6.787 14.933 14.4 1.853 15.467-9.080 12.093-12.187 0.121-0.691 0.192-1.332 0.22-1.933 0.577 0.269 1.244 0.515 1.387 0.568 1.204 0.471 3.12 1.223 4.387 0.616 1.165-0.56 1.313-2.080 0.68-3.053-0.663-1.024-1.893-1.347-3.027-1.493-0.453-0.058-0.977-0.092-1.509-0.092-0.178 0-0.354 0.004-0.53 0.011l0.025-0.001c-0.067 0.003-0.336 0.016-0.663 0.040 1.773-2.44 1.867-5.587 0.425-7.307-0.333-0.397-1.627-1.64-2.2-0.991-0.372 0.523 0.301 1.547 0.248 2.32-0.123 1.201-1.14 2.16-1.813 2.68-0.956-0.76-1.813-0.993-1.813-0.993l-0.429-0.083c-0.859-0.667-2.040-0.751-2.040-0.751 0.484-0.587 2.080-0.133 2.080-0.133-1.413-1.413-3.080-0.437-3.080-0.437 0-0.689-0.508-1.108-0.508-1.108-0.531 0.408-0.553 0.952-0.553 0.952-1.347-1.413-2.827-1.059-2.827-1.059s1.307 0.413 1.56 1.44c-0.203-0.042-0.437-0.066-0.676-0.066-0.012 0-0.025 0-0.037 0h0.002l-0.461-0.088c-0.269-0.028-0.58-0.044-0.896-0.044-0.536 0-1.061 0.046-1.572 0.134l0.055-0.008c-0.327-0.791-0.68-2-0.255-3.040 0.316-0.703 1.387-1.288 1.311-1.92-0.084-0.369-0.461-0.484-0.9-0.465zM14.253 5.92c0.816 0.087 1.587 0.683 2.133 1.324 0.005-0.397 0.060-0.833 0.359-1.124 0.303 0.252 0.353 0.76 0.333 1.156 0.704-0.457 1.64-0.64 2.427-0.271-0.62-0.084-1.319 0.077-1.653 0.664 1.024 0.059 2.173 0.347 2.8 1.227-0.923-0.513-2.187-1.168-3.227-0.487 0.721 0.185 1.507 0.653 1.56 1.48-0.591-0.807-1.487-1.361-2.515-1.491l-0.018-0.002c-0.92 0.036-1.893 0.456-2.453 1.205-0.141 0.232-0.251 0.471-0.232 0.013-0.059-0.897 0.983-1.211 1.68-1.329-0.816-0.4-1.747-0.685-2.653-0.5 0.681-0.552 1.627-0.573 2.44-0.373-0.103-0.631-0.465-1.161-0.971-1.487l-0.009-0.005zM3.013 9.227c0.249 0.002 0.491 0.028 0.725 0.076l-0.024-0.004c0.379 0.067 1.168 0.28 1.507 0.663 0.333 0.383 1.299 1.813-1.001 2.16-0.751 0.080-1.947 0.212-2.52-0.397-0.525-0.563-0.305-1.547 0.233-2.053 0.353-0.331 0.705-0.437 1.080-0.444zM10.707 10.56c0.012-0 0.026-0 0.041-0 0.11 0 0.218 0.010 0.322 0.029l-0.011-0.002c3.533 0.576 1.52 6.413 1.52 6.413l-0.392-0.271c0.272-0.644 0.571-1.667 0.555-2.68-0.023-1.427-0.84-2.587-1.827-2.56-0.987 0.013-1.773 1.189-1.747 2.627 0.005 0.372 0.061 1.047 0.161 1.4-0.007-0.020-0.007-0.177-0.013-0.2l-0.904-0.284c0 0 0.017-4.427 2.295-4.472zM20.853 12.173c0.208 0.001 0.429 0.029 0.664 0.084 2.587 0.613 0.884 4.76 0.884 4.76l-0.809 0.133v0.004c-0.873 0.137-1.853 0.284-2.84 0.467-0.031-0.037 0.025 0.040 0 0l-1.153 0.191c0 0 0.14-5.667 3.255-5.639zM18.747 17.707l2.947-0.42c0.156-0.223 0.243-0.589 0.3-0.887 0.271-1.4 0.211-2.707-0.707-3.067-0.132-0.053-0.284-0.085-0.444-0.088h-0.001c-0.823-0.016-1.72 0.72-2.173 1.84-0.273 0.691-0.521 2.173-0.344 2.667 0.067 0.187 0.681 0.159 0.557 0.021zM11.027 12.76c0.301 0 0.545 0.244 0.545 0.545s-0.244 0.545-0.545 0.545v0c-0.301 0-0.545-0.244-0.545-0.545s0.244-0.545 0.545-0.545v0zM28.493 13.493c0.223 0.003 0.427 0.020 0.569 0.040 0.656 0.088 1.205 0.212 1.587 0.823 0.365 0.583 0.284 1.48-0.385 1.813-0.724 0.359-1.827-0.093-2.52-0.375-2.093-0.947-0.747-1.893-0.316-2.12 0.269-0.147 0.689-0.183 1.065-0.181zM20.6 14.353c0.005-0 0.011-0 0.017-0 0.301 0 0.546 0.244 0.546 0.546 0 0.295-0.235 0.536-0.527 0.545l-0.001 0c-0.005 0-0.011 0-0.017 0-0.301 0-0.546-0.244-0.546-0.546 0-0.295 0.235-0.536 0.527-0.545l0.001-0zM7.467 15.341c1.933-0.019 3.52 1.265 5.173 2.080 2.267 1.213 4.96 1.063 7.373 0.464 1.467-0.445 3.32-0.719 4.573 0.312 1.68 1.667 1.88 4.28 1.12 6.387-0.929 2.72-3.6 4.44-6.32 5-3.4 0.6-7.053 0.48-10.267-0.884-3.667-1.413-6.267-5.453-5.613-9.413 0.195-1.96 1.88-3.893 3.96-3.945zM9.827 17.675c-0.078 0.001-0.153 0.014-0.225 0.035l0.006-0.002c-0.557 0.167-0.676 0.899-0.264 1.64 0.412 0.736 1.197 1.2 1.76 1.031 0.557-0.167 0.676-0.899 0.264-1.64-0.36-0.645-1.007-1.079-1.541-1.064zM6.427 18.935c-0.018-0.001-0.039-0.001-0.059-0.001-0.283 0-0.546 0.087-0.764 0.236l0.005-0.003c-0.713 0.512-0.732 1.893 0.099 3.053 0.831 1.157 2.2 1.653 2.907 1.143 0.713-0.512 0.712-2.053-0.117-3.213-0.571-0.796-1.387-1.204-2.069-1.215zM20.693 19.164c-0.296 0-0.575 0.071-0.821 0.197l0.010-0.005c-0.761 0.363-1.275 1.116-1.144 1.68 0.131 0.567 0.853 0.732 1.613 0.371 0.763-0.363 1.273-1.116 1.144-1.68-0.081-0.355-0.395-0.552-0.803-0.563zM6.293 19.351c0.844-0.027 1.573 0.548 2 1.241 0.4 0.712 0.755 1.88-0.005 2.467-1.171 0.273-2.213-0.765-2.613-1.773-0.325-0.632-0.277-1.88 0.619-1.935zM23.493 21.324c-0.021-0.001-0.045-0.001-0.069-0.001s-0.049 0-0.073 0.002l0.003-0c-0.627 0.029-1.373 0.387-2.013 1.019-1.008 1.007-1.321 2.333-0.7 2.947 0.62 0.621 1.947 0.307 2.947-0.699 1.008-1.008 1.321-2.333 0.7-2.947-0.206-0.197-0.486-0.319-0.794-0.32h-0zM23.512 21.736c0.232 0.013 0.467 0.121 0.587 0.324 0.311 1.047-0.473 2.107-1.313 2.653-0.564 0.407-1.613 0.824-2.013 0.016-0.12-1.48 1.22-2.827 2.64-3 0.035 0 0.070 0.003 0.104 0.007l-0.004-0zM9.779 23.669c-0.059 0.002-0.109 0.035-0.137 0.082l-0 0.001c-0.013 0.019-0.253 0.416-0.731 0.412-0.001-0-0.003-0-0.004-0-0.092 0-0.167 0.075-0.167 0.167 0 0.002 0 0.004 0 0.006v-0c0.001 0.087 0.071 0.16 0.155 0.172l0.024 0.001c0.004 0 0.008 0 0.013 0 0.147 0 0.287-0.028 0.416-0.079l-0.008 0.003c0.288 0.575 1.467 2.533 4.373 3 2.947 0.471 5.16-0.987 5.733-1.4 0.127 0.097 0.279 0.17 0.444 0.208l0.008 0.002 0.023 0.004c0.005 0 0.011 0.001 0.016 0.001 0.082 0 0.15-0.057 0.168-0.133l0-0.001c0.002-0.010 0.003-0.022 0.003-0.035 0-0.084-0.059-0.155-0.138-0.172l-0.001-0c-0.467-0.104-0.632-0.548-0.64-0.569-0.026-0.070-0.092-0.118-0.169-0.118-0.019 0-0.037 0.003-0.053 0.008l0.001-0c-0.069 0.022-0.118 0.085-0.118 0.16 0 0.020 0.004 0.040 0.010 0.058l-0-0.001c0.004 0.013 0.060 0.168 0.195 0.341-0.581 0.4-2.693 1.68-5.453 1.291-2.573-0.363-3.773-2.253-4.080-2.813 0.184-0.148 0.279-0.307 0.287-0.317 0.014-0.025 0.023-0.054 0.023-0.086 0-0.065-0.036-0.121-0.088-0.151l-0.001-0c-0.028-0.022-0.064-0.037-0.102-0.039l-0-0z"></path>
</symbol>
<symbol id="icon-octopusdeploy" viewBox="0 0 32 32">
<path fill="#2f93e0" style="fill: var(--color9, #2f93e0)" d="M2.907 24.283c2.407-1.549 5.237-4.216 4.163-7.347-0.583-1.709-1.395-3.172-1.503-5.016-0.013-0.203-0.020-0.44-0.020-0.678 0-1.413 0.259-2.766 0.733-4.013l-0.026 0.078c2.16-5.787 8.581-8.529 14.388-6.788 5.373 1.621 9.077 7.857 6.825 13.297-1.287 3.141-1.86 5.564 1.007 8.008 0.776 0.661 2.667 1.653 2.656 2.831 0 1.551-3.027-0.325-3.363-0.593 0.381 0.671 4.184 4.649 1.767 4.917-2.227 0.259-4.196-2.852-5.533-4.189-2.248-2.243-1.86 2.723-1.871 3.747 0 1.616-1.157 4.901-3.213 2.763-1.693-1.761-1.033-4.577-2.232-6.54-1.291-2.149-3.44 2.149-3.977 2.933-0.6 0.88-3.617 5.125-4.795 2.863-0.967-1.84 0.579-4.717 1.343-6.38-0.279 0.604-2.247 1.497-2.82 1.787-1.065 0.598-2.339 0.951-3.694 0.951-0.134 0-0.268-0.003-0.401-0.010l0.019 0.001c-3.023-0.217-0.703-1.824 0.516-2.613z"></path>
</symbol>
<symbol id="icon-prestashop" viewBox="0 0 32 32">
<path fill="#df0067" style="fill: var(--color10, #df0067)" d="M15.411 1.379c-8.512 0-15.411 6.901-15.411 15.411 0 1.677 0.268 3.293 0.765 4.796l0.003-0.009c0.203-0.93 0.446-1.727 0.745-2.495l-0.039 0.113 0.015-0.040c0.113-0.296 0.239-0.589 0.369-0.88l0.112-0.241c0.107-0.228 0.22-0.453 0.337-0.676 0.048-0.091 0.093-0.181 0.144-0.271 0.027-0.051 0.059-0.097 0.085-0.147 0.125-0.221 0.253-0.443 0.387-0.657l0.1-0.152c0.167-0.26 0.341-0.515 0.524-0.764l0.047-0.067c0.192-0.257 0.393-0.507 0.601-0.751l0.133-0.157c0.207-0.236 0.42-0.467 0.641-0.689l0.132-0.129c0.228-0.226 0.465-0.445 0.71-0.655l0.018-0.015c0.987-3.307 4.007-5.713 7.581-5.713 1.439 0 2.869 0.413 4.095 1.164 1.259 0.786 2.263 1.873 2.927 3.164l0.030 0.065 0.053 0.099v0.004l0.005 0.003c0.787 0.49 1.47 1.017 2.097 1.604l-0.007-0.007c0.053 0.049 0.108 0.095 0.16 0.145 0.003 0 0.008 0.007 0.009 0.008l-0.003-0.008-0.001-0.005v-0.004l0.056-0.112c0.503-3.179 1.907-5.469 3.56-5.469 1.245 0 2.349 1.3 3.035 3.301l0.007 0.021 0.001 0.003c0.193 0.211 0.383 0.441 0.565 0.695l0.009 0.013 0.028 0.089-0.027-0.104c-2.056-6.092-7.817-10.476-14.601-10.479zM13.236 7.303c-3.121 0.057-6.116 2.207-7.137 5.184l-0.016 0.045c0.513-0.415 1.086-0.809 1.688-1.159l0.065-0.035c3.741-2.208 8.639-2.195 12.371 0.021-1.193-2.204-3.508-3.759-6-4.005-0.256-0.034-0.551-0.053-0.851-0.053-0.042 0-0.084 0-0.126 0.001l0.006-0zM26.348 7.969c-0.187 0.005-0.366 0.037-0.533 0.093l0.013-0.004c-1.687 0.749-2.292 2.764-2.708 4.404l-0.021 0.096c0.487-0.827 1.077-1.62 1.861-2.189 1.113-0.916 2.807-0.873 3.888 0.071 0.411 0.435 0.188 0.011 0.041-0.293-0.456-1-1.367-2.204-2.541-2.177zM16.467 11.087l-1.427 4.36-0.003 0.007-0.008 0.003-6.009 1.483 5.941 1.449c0.14 0.147 0.303 0.273 0.48 0.373h0.003c0.056 0.032 0.113 0.060 0.172 0.087l0.013 0.007c0.055 0.024 0.111 0.044 0.168 0.063l0.028 0.011c0.053 0.017 0.107 0.031 0.16 0.043l0.044 0.011c0.127 0.027 0.273 0.043 0.423 0.044h0.001c0.002 0 0.004 0 0.006 0 0.851 0 1.581-0.515 1.896-1.251l0.005-0.013c0.107-0.248 0.164-0.52 0.164-0.805v-0.015l-0.001-0.016c-0.001-0.072-0.005-0.143-0.013-0.213l-0.001-0.003c-0.009-0.080-0.022-0.149-0.037-0.218l0.003 0.014-0.001-0.005c-0.033-0.147-0.077-0.275-0.133-0.397l0.005 0.013v-0.004c-0.115-0.255-0.272-0.472-0.463-0.652l-0.001-0.001v-0.004zM20.664 11.921c0.064 1.344 0.048 2.728-0.133 4.076-0.227 2.691-1.587 5.064-2.629 7.488l-0.040 0.107-0.047 0.115c2.013-2.029 4.227-4.053 5.292-6.776 0.511-0.848 0.157-1.789-0.153-2.635-0.227-1.169-1.425-1.704-2.289-2.375zM28.893 12.684l-0.784 3.584c-0.022 0.071-0.044 0.161-0.061 0.252l-0.002 0.014c-0.003 0.027-0.009 0.053-0.013 0.080-0.013 0.088-0.020 0.191-0.021 0.295v0.001l-0.003 0.041h0.004c0 0.837 0.396 1.515 0.884 1.516 0.089-0.001 0.172-0.023 0.246-0.061l-0.003 0.001 0.036-0.020c0.036-0.020 0.066-0.041 0.095-0.064l-0.001 0.001c0.017-0.013 0.032-0.029 0.048-0.044 0.070-0.065 0.131-0.138 0.18-0.22l0.003-0.004 0.040-0.072c0.021-0.038 0.044-0.085 0.065-0.133l0.004-0.011 0.023-0.053c0.027-0.071 0.051-0.144 0.071-0.221l0.003-0.003 0.001-0.004 0.539-0.601-0.543-0.608v0.001l-0.027-0.084zM23.052 13.825c0.92 2.288 1.133 4.943 0.121 7.24-0.653 1.824-2.116 3.284-2.499 5.207 0.973 0.153 1.957 0.235 2.947 0.248 2.888 0.039 5.776-0.56 8.379-1.82-2.72-3.825-5.495-7.673-8.948-10.875zM16.455 15.128c0.429 0 0.777 0.348 0.777 0.777s-0.348 0.777-0.777 0.777v0c-0.429 0-0.777-0.348-0.777-0.777s0.348-0.777 0.777-0.777v0zM28.924 15.621c0.184 0 0.332 0.253 0.332 0.568s-0.148 0.568-0.332 0.568c-0.183 0-0.331-0.253-0.331-0.568 0-0.313 0.147-0.568 0.331-0.568zM23.532 15.867c-0.021 0.149-0.044 0.279-0.067 0.387l-0.008 0.031c-0.013 0.067-0.029 0.125-0.044 0.171-0.64 1.889-1.7 3.36-3.147 4.929-0.196 0.213-0.401 0.427-0.612 0.645-0.535 0.554-1.054 1.077-1.581 1.594l-0.013 0.013c-0.149 0.147-0.345 0.348-0.567 0.581-0.137 0.383-0.293 0.813-0.424 1.267-0.059-0.021-0.115-0.041-0.175-0.065-2.811-1.087-4.692-2.539-4.692-2.539s1.448 1.885 3.887 3.653c0.236 0.172 0.468 0.32 0.696 0.452-0.1 1.592 0.603 3.12 3.773 3.576 0.258 0.037 0.557 0.058 0.86 0.058 0.274 0 0.544-0.017 0.809-0.050l-0.032 0.003-0.013-0.039c-0.002-0.005-0.003-0.010-0.006-0.014l0 0c0 0-0.223-0.177-0.505-0.503-0.302-0.345-0.562-0.739-0.765-1.165l-0.013-0.031c-0.158-0.332-0.281-0.718-0.351-1.123l-0.004-0.027c-0.034-0.203-0.054-0.436-0.054-0.674 0-0.22 0.017-0.435 0.049-0.646l-0.003 0.024c0.023-0.16 0.053-0.321 0.096-0.488 0.124-0.499 0.34-1.029 0.676-1.589l0.003-0.004 0.321-0.539c1.471-2.48 2.396-4.367 2.008-7.255-0.037-0.28-0.073-0.496-0.115-0.71l0.012 0.075zM29.756 16.635l0.001 0.011zM29.773 16.905l0.004 0.048v0.013c0 0.017-0.004 0.033-0.004 0.051 0-0.019 0.004-0.037 0.004-0.057 0-0.019-0.003-0.035-0.004-0.055zM29.757 17.272v0.001l-0.003 0.013-0.003 0.019zM31.561 25.176c-3.404 1.517-7.253 1.92-10.923 1.343-0.187 1.477 0.512 2.957 1.619 3.907l0.016 0.013c3.604-0.577 6.633-2.891 9.288-5.263z"></path>
</symbol>
<symbol id="icon-probot" viewBox="0 0 32 32">
<path fill="#00b0d8" style="fill: var(--color11, #00b0d8)" d="M16 0.053c-1.283 0.001-2.323 1.041-2.323 2.324 0 1.027 0.667 1.899 1.591 2.206l0.016 0.005-0.841 3.439h-11.168c-1.809 0-3.275 1.466-3.275 3.275v0 17.372c0 1.809 1.466 3.275 3.275 3.275v0h25.451c1.808 0 3.275-1.467 3.275-3.275v-17.372c0-1.808-1.467-3.275-3.275-3.275h-11.204l-0.821-3.433c0.949-0.307 1.624-1.183 1.624-2.216 0-1.283-1.040-2.324-2.324-2.324v0zM5.244 10.508h21.515c1.468 0 2.659 1.191 2.659 2.659v13.489c0 1.468-1.19 2.659-2.659 2.659v0h-21.515c-1.468 0-2.659-1.19-2.659-2.659v0-13.489c0-1.468 1.191-2.659 2.659-2.659zM9.583 13.591c-3.369 0-6.1 2.731-6.1 6.1s2.731 6.1 6.1 6.1v0c3.369 0 6.1-2.731 6.1-6.1s-2.731-6.1-6.1-6.1v0zM22.573 13.591c-3.369 0-6.1 2.731-6.1 6.1s2.731 6.1 6.1 6.1v0c3.369 0 6.1-2.731 6.1-6.1s-2.731-6.1-6.1-6.1v0zM9.583 15.017c0.023-0 0.051-0.001 0.079-0.001 2.582 0 4.675 2.093 4.675 4.675s-2.093 4.675-4.675 4.675c-0.028 0-0.055-0-0.083-0.001l0.004 0c-2.548-0.044-4.596-2.12-4.596-4.674s2.048-4.63 4.592-4.674l0.004-0zM22.573 15.017c0.023-0 0.051-0.001 0.079-0.001 2.582 0 4.675 2.093 4.675 4.675s-2.093 4.675-4.675 4.675c-0.028 0-0.055-0-0.083-0.001l0.004 0c-2.548-0.044-4.596-2.12-4.596-4.674s2.048-4.63 4.592-4.674l0.004-0zM9.583 17.235c-1.357 0-2.457 1.1-2.457 2.457s1.1 2.457 2.457 2.457v0c1.357 0 2.457-1.1 2.457-2.457s-1.1-2.457-2.457-2.457v0zM22.573 17.235c-1.357 0-2.457 1.1-2.457 2.457s1.1 2.457 2.457 2.457v0c1.357 0 2.457-1.1 2.457-2.457s-1.1-2.457-2.457-2.457v0zM13.337 25.901v2.879h0.941v-2.879zM14.773 25.901v2.879h0.94v-2.879zM16.208 25.901v2.879h0.941v-2.879zM17.644 25.901v2.879h0.941v-2.879zM19.080 25.941v2.8c0.638-0.156 1.104-0.723 1.105-1.399v-0.001c0-0.68-0.472-1.249-1.105-1.4zM12.843 25.979c-0.571 0.199-0.974 0.733-0.975 1.361v0.001c0 0.632 0.408 1.168 0.975 1.361z"></path>
</symbol>
</defs>
</svg>
